<?xml version="1.0" encoding="UTF-8"?>
<svg version="1.1" xmlns="http://www.w3.org/2000/svg" width="486" height="486">
<path d="M0 0 C1.04510742 0.22494141 2.09021484 0.44988281 3.16699219 0.68164062 C31.10820466 6.87185126 57.96138607 17.31101588 82 33 C82.99128906 33.61875 83.98257812 34.2375 85.00390625 34.875 C106.40769536 48.55518478 126.45521861 67.00985846 142 87 C142.71671875 87.91136719 143.4334375 88.82273437 144.171875 89.76171875 C168.33387371 121.16374899 183.0405962 156.34430691 191 195 C191.18369141 195.86318848 191.36738281 196.72637695 191.55664062 197.61572266 C197.39660479 226.25132386 196.16197963 259.54941836 190 288 C189.77505859 289.04510742 189.55011719 290.09021484 189.31835938 291.16699219 C183.12814874 319.10820466 172.68898412 345.96138607 157 370 C156.38125 370.99128906 155.7625 371.98257812 155.125 373.00390625 C141.44481522 394.40769536 122.99014154 414.45521861 103 430 C102.08863281 430.71671875 101.17726563 431.4334375 100.23828125 432.171875 C68.83625101 456.33387371 33.65569309 471.0405962 -5 479 C-5.86318848 479.18369141 -6.72637695 479.36738281 -7.61572266 479.55664062 C-36.25132386 485.39660479 -69.54941836 484.16197963 -98 478 C-99.04510742 477.77505859 -100.09021484 477.55011719 -101.16699219 477.31835938 C-129.10820466 471.12814874 -155.96138607 460.68898412 -180 445 C-180.99128906 444.38125 -181.98257813 443.7625 -183.00390625 443.125 C-204.40769536 429.44481522 -224.45521861 410.99014154 -240 391 C-240.71671875 390.08863281 -241.4334375 389.17726563 -242.171875 388.23828125 C-266.33387371 356.83625101 -281.0405962 321.65569309 -289 283 C-289.18369141 282.13681152 -289.36738281 281.27362305 -289.55664062 280.38427734 C-295.39660479 251.74867614 -294.16197963 218.45058164 -288 190 C-287.77505859 188.95489258 -287.55011719 187.90978516 -287.31835938 186.83300781 C-281.12814874 158.89179534 -270.68898412 132.03861393 -255 108 C-254.38125 107.00871094 -253.7625 106.01742187 -253.125 104.99609375 C-239.44481522 83.59230464 -220.99014154 63.54478139 -201 48 C-200.08863281 47.28328125 -199.17726563 46.5665625 -198.23828125 45.828125 C-166.83625101 21.66612629 -131.65569309 6.9594038 -93 -1 C-92.13681152 -1.18369141 -91.27362305 -1.36738281 -90.38427734 -1.55664062 C-61.74867614 -7.39660479 -28.45058164 -6.16197963 0 0 Z " fill="#D3B7CB" transform="translate(292,4)"/>
<path d="M0 0 C0.0463312 12.30009203 0.08187325 24.60016332 0.10362434 36.90032482 C0.11406352 42.6117225 0.12822529 48.3230605 0.15087891 54.03442383 C0.17260232 59.54572957 0.18456762 65.05697789 0.18975449 70.56832314 C0.19345113 72.6714703 0.20066967 74.77461431 0.21146011 76.87773705 C0.22596823 79.82245055 0.22797821 82.76692645 0.22705078 85.71166992 C0.23424133 86.5820137 0.24143188 87.45235748 0.24884033 88.34907532 C0.23377598 92.76657231 -0.13895402 95.9259831 -2 100 C-2.31887523 102.23594344 -2.31887523 102.23594344 -2.31884766 104.51489258 C-2.33871735 105.37540726 -2.35858704 106.23592194 -2.37905884 107.12251282 C-2.39061005 108.0372789 -2.40216125 108.95204498 -2.4140625 109.89453125 C-2.43342865 110.84188644 -2.4527948 111.78924164 -2.4727478 112.76530457 C-2.53236371 115.78094577 -2.57885705 118.79662552 -2.625 121.8125 C-2.66319633 123.86134446 -2.70224902 125.91017314 -2.7421875 127.95898438 C-2.83805053 132.97252762 -2.92214807 137.98614603 -3 143 C-7.92869122 141.51318854 -12.31686542 139.45574145 -16.87109375 137.10546875 C-17.62242081 136.72139359 -18.37374786 136.33731842 -19.14784241 135.94160461 C-21.58040757 134.69537489 -24.00920011 133.4420181 -26.4375 132.1875 C-27.26314453 131.76259277 -28.08878906 131.33768555 -28.93945312 130.89990234 C-44.20682709 123.03785721 -59.3121147 114.90904518 -74 106 C-73.35802978 102.17143026 -71.57249631 99.56503171 -69.421875 96.37109375 C-69.05894348 95.82886673 -68.69601196 95.28663971 -68.32208252 94.72798157 C-67.13697935 92.96065598 -65.94364998 91.1990618 -64.75 89.4375 C-63.92665256 88.21350581 -63.10373895 86.98921968 -62.28125 85.76464844 C-57.55449142 78.73688817 -52.78692482 71.73689825 -48 64.75 C-47.22861694 63.62235229 -47.22861694 63.62235229 -46.44165039 62.47192383 C-43.97076689 58.86289782 -41.48672539 55.26424578 -38.98046875 51.6796875 C-38.04910437 50.32838325 -37.11809568 48.97683375 -36.1875 47.625 C-35.76017578 47.02397461 -35.33285156 46.42294922 -34.89257812 45.80371094 C-32.57772835 42.41313686 -31.48185211 40.12971602 -32 36 C-35.0699667 36.30489395 -36.59905249 36.5867427 -38.78125 38.8359375 C-39.63203125 40.09277344 -39.63203125 40.09277344 -40.5 41.375 C-41.19738281 42.38820312 -41.89476562 43.40140625 -42.61328125 44.4453125 C-42.99564941 45.01540039 -43.37801758 45.58548828 -43.77197266 46.17285156 C-45.05513267 48.0820304 -46.3592138 49.97547131 -47.66796875 51.8671875 C-56.76160665 65.04457739 -65.69329081 78.33514674 -74.66796875 91.59375 C-75.07575562 92.19608459 -75.48354248 92.79841919 -75.90368652 93.41900635 C-77.61026321 95.94093938 -79.31087992 98.46631987 -81 101 C-85.87465405 102.53936444 -90.72375888 102.06129742 -95.34375 99.90722656 C-98.77953745 98.0269382 -102.1148458 96.02744026 -105.41186523 93.91357422 C-106.19247314 93.41615723 -106.97308105 92.91874023 -107.77734375 92.40625 C-108.47077881 91.94541016 -109.16421387 91.48457031 -109.87866211 91.00976562 C-112.40198971 89.80865123 -114.23847793 89.81427038 -117 90 C-117.33 91.65 -117.66 93.3 -118 95 C-117.3090625 95.24878906 -116.618125 95.49757813 -115.90625 95.75390625 C-112.54497382 97.19509859 -109.59759636 98.9942649 -106.5 100.9375 C-105.3965625 101.62714844 -104.293125 102.31679687 -103.15625 103.02734375 C-100 105 -100 105 -97.78125 106.69140625 C-94.84087473 108.07486933 -93.14632985 108.16878511 -89.94140625 108.30078125 C-82.95818106 108.78282571 -77.91196467 111.7353726 -71.9375 115.1875 C-70.22255708 116.14434831 -68.50759709 117.10116753 -66.79164124 118.05619812 C-65.0230806 119.04362365 -63.25927684 120.03914197 -61.49609375 121.03613281 C-56.01961633 124.12405508 -50.47658346 127.08885586 -44.9375 130.0625 C-43.87958252 130.63355469 -42.82166504 131.20460937 -41.73168945 131.79296875 C-32.84912882 136.57822297 -23.90214461 141.23538218 -14.91772461 145.82641602 C-13.93682861 146.33100342 -12.95593262 146.83559082 -11.9453125 147.35546875 C-11.08437988 147.79528076 -10.22344727 148.23509277 -9.33642578 148.68823242 C-6.97521408 150.01391586 -4.9978204 151.16527508 -3 153 C-2.49219131 155.29008007 -2.49219131 155.29008007 -2.48101807 158.03031921 C-2.46710526 159.06938416 -2.45319244 160.1084491 -2.43885803 161.17900085 C-2.4438884 162.31835587 -2.44891876 163.45771088 -2.45410156 164.6315918 C-2.44376389 165.83171906 -2.43342621 167.03184631 -2.42277527 168.26834106 C-2.39831349 171.55965191 -2.39151137 174.85011753 -2.39249516 178.14146018 C-2.38936931 181.58086829 -2.36375808 185.02010648 -2.34051514 188.45942688 C-2.2999261 194.97232108 -2.2796077 201.48511509 -2.26654124 207.99811631 C-2.25068094 215.41288687 -2.21226952 222.82748668 -2.17194796 230.24215829 C-2.08950939 245.49472147 -2.03544213 260.74725086 -2 276 C-0.68 276.66 0.64 277.32 2 278 C3.65780492 276.34219508 3.14235586 274.37823505 3.15821838 272.09629822 C3.1680072 271.03474014 3.17779602 269.97318207 3.18788147 268.87945557 C3.19363693 267.70485779 3.1993924 266.53026001 3.20532227 265.32006836 C3.21522186 264.09097244 3.22512146 262.86187653 3.23532104 261.59553528 C3.26157201 258.2155421 3.28340783 254.83557335 3.30332303 251.45554042 C3.32514459 247.92676001 3.35255195 244.39802322 3.37937927 240.86927795 C3.42935811 234.18280046 3.47427761 227.49629882 3.51740164 220.80977398 C3.56672974 213.199226 3.62166424 205.58872176 3.67708123 197.97821605 C3.79098093 182.3188511 3.89780248 166.65944596 4 151 C8.52199677 148.65988822 13.04414052 146.3200607 17.56640625 143.98046875 C18.23362764 143.63527884 18.90084904 143.29008892 19.58828926 142.93443871 C26.85609484 139.1746539 34.12434356 135.41580686 41.40234375 131.67578125 C42.50537842 131.10811035 43.60841309 130.54043945 44.74487305 129.95556641 C46.39666407 129.10548202 48.04852372 128.2555292 49.70132446 127.40740967 C55.98015181 124.18317832 62.21982838 120.91031077 68.359375 117.42578125 C69.3481665 116.86785889 70.33695801 116.30993652 71.35571289 115.73510742 C73.1712313 114.70283361 74.97861258 113.65603497 76.77514648 112.59106445 C80.93022653 110.22906857 84.11103992 108.78823919 88.91796875 108.55859375 C95.24892375 108.21240346 99.82285691 105.19548821 105.125 101.9375 C106.08148438 101.36966797 107.03796875 100.80183594 108.0234375 100.21679688 C110.35913626 98.82705611 112.6836109 97.42160949 115 96 C115 94.35 115 92.7 115 91 C109.58746696 90.47620648 106.17477343 92.17718985 101.6875 94.9375 C101.05521484 95.31068359 100.42292969 95.68386719 99.77148438 96.06835938 C96.71192869 97.79881971 96.71192869 97.79881971 94 100 C92.47228759 100.13298911 90.94148179 100.23105425 89.41015625 100.3125 C84.19765464 100.79987398 80.82871894 102.26676276 76.4375 105 C67.64302884 110.17035988 58.6430142 114.85920982 49.5625 119.5 C46.69225671 120.97047383 43.82267341 122.4422332 40.953125 123.9140625 C40.26241913 124.26808136 39.57171326 124.62210022 38.8600769 124.98684692 C32.41687866 128.29215214 26.00373738 131.65302749 19.60571289 135.04492188 C18.31589304 135.72834433 17.02506225 136.40986464 15.73291016 137.08886719 C14.0519381 137.97269188 12.37549801 138.8651194 10.69921875 139.7578125 C8 141 8 141 5 141 C5 136.38 5 131.76 5 127 C5.66 127 6.32 127 7 127 C7.34804688 125.9790625 7.34804688 125.9790625 7.703125 124.9375 C9.30448612 121.3103206 11.46724634 118.21850809 13.75 115 C17.15869983 110.13689834 20.51329649 105.24819081 23.76953125 100.28125 C24.39956055 99.3221875 25.02958984 98.363125 25.67871094 97.375 C26.92549767 95.47217981 28.1671207 93.56596526 29.40332031 91.65625 C29.97276367 90.79 30.54220703 89.92375 31.12890625 89.03125 C31.88796265 87.86432617 31.88796265 87.86432617 32.66235352 86.67382812 C33.10377686 86.12146484 33.5452002 85.56910156 34 85 C34.66 85 35.32 85 36 85 C36.26627197 84.27272705 36.53254395 83.5454541 36.80688477 82.79614258 C37.99687951 80.00731307 39.36978186 77.75316554 41.08984375 75.26171875 C41.704646 74.36598145 42.31944824 73.47024414 42.95288086 72.54736328 C43.60780518 71.6036084 44.26272949 70.65985352 44.9375 69.6875 C45.93825562 68.2331958 45.93825562 68.2331958 46.95922852 66.74951172 C48.31712773 64.77707335 49.67706598 62.80603713 51.0390625 60.83642578 C53.36183489 57.47661881 55.67359306 54.10934617 57.98461914 50.74145508 C59.98643445 47.82535075 61.99295661 44.91250788 64 42 C68.40478191 43.5292073 72.05558743 45.88492922 75.875 48.5 C76.53137451 48.94287354 77.18774902 49.38574707 77.86401367 49.84204102 C79.91211585 51.22397847 81.95638079 52.61144386 84 54 C94.07577032 60.83553303 104.31881773 67.30936749 114.73046875 73.62109375 C118.47666878 75.8971843 122.2109003 78.19197862 125.9375 80.5 C126.60579834 80.90927734 127.27409668 81.31855469 127.96264648 81.74023438 C134.39390206 85.73499008 134.39390206 85.73499008 136 88 C136.1953125 90.12890625 136.1953125 90.12890625 136.125 92.5625 C136.598643 99.60536551 141.13331453 103.32955185 146 108 C147.66666667 109.66666667 149.33333333 111.33333333 151 113 C152.39298489 114.38175672 153.78624078 115.76324026 155.1796875 117.14453125 C156.74485315 118.70045899 158.3099557 120.2564502 159.875 121.8125 C160.65230469 122.58142578 161.42960937 123.35035156 162.23046875 124.14257812 C166.40716789 128.30172811 170.38873523 132.5423212 174.23095703 137.01049805 C177.48601163 140.67119912 181.00642334 144.06892024 184.5 147.5 C189.34021555 152.25362851 194.00231883 157.06148086 198.42773438 162.20507812 C200.51149571 164.58393113 202.73483744 166.79444698 205 169 C207.88989828 171.85523683 210.68451745 174.71500196 213.3125 177.8125 C216.52244216 181.57141089 219.98832721 185.02691702 223.5 188.5 C236.99781432 201.87884012 236.99781432 201.87884012 239 207 C238.77148438 209.38745117 238.77148438 209.38745117 238.09375 212.04296875 C237.84802246 213.02507324 237.60229492 214.00717773 237.34912109 215.01904297 C237.06891113 216.06463379 236.78870117 217.11022461 236.5 218.1875 C236.21592285 219.2717627 235.9318457 220.35602539 235.63916016 221.47314453 C229.26822783 245.30149032 219.50441278 268.30857967 206 289 C205.38125 289.99128906 204.7625 290.98257812 204.125 292.00390625 C190.44481522 313.40769536 171.99014154 333.45521861 152 349 C151.08863281 349.71671875 150.17726563 350.4334375 149.23828125 351.171875 C132.44472139 364.09352269 114.40529449 374.47974652 95 382.9375 C93.70980957 383.50428467 93.70980957 383.50428467 92.39355469 384.08251953 C89.94867482 385.12104838 87.4920025 386.08080427 85 387 C84.21568604 387.30429932 83.43137207 387.60859863 82.62329102 387.92211914 C80.26939528 388.67121052 78.46968327 389.11257241 76 389 C73.06182761 387.36443004 71.10481319 385.10078351 68.9375 382.5625 C67.7244052 381.24448189 66.50957755 379.92805644 65.29296875 378.61328125 C64.72239746 377.97986816 64.15182617 377.34645508 63.56396484 376.69384766 C61.74380843 374.72253245 59.810093 372.96744062 57.75 371.25 C54.67120659 368.64486711 51.83489999 365.86926241 49 363 C45.52701999 359.49012946 41.98802988 356.16573398 38.23828125 352.95703125 C35.95795968 350.96324223 33.73660333 348.91265521 31.52124023 346.84716797 C24.1927263 340.01533665 16.69268642 333.41885709 9 327 C8.38866211 326.48904785 7.77732422 325.9780957 7.14746094 325.45166016 C-0.97448251 318.70312507 -9.27968173 312.67550411 -18.24511719 307.10644531 C-21.24540197 305.21477995 -24.18214161 303.22934767 -27.125 301.25 C-32.88613601 297.38988806 -38.68277945 293.58752911 -44.5 289.8125 C-45.74330078 289.00546631 -45.74330078 289.00546631 -47.01171875 288.18212891 C-50.66662125 285.81046323 -54.32209161 283.43967329 -57.97753906 281.06884766 C-61.02783499 279.08931749 -64.07653207 277.10734382 -67.125 275.125 C-68.06021484 274.51889893 -68.99542969 273.91279785 -69.95898438 273.28833008 C-74.40725529 270.39385829 -78.79750781 267.45076911 -83.1171875 264.3671875 C-86.89551856 261.69931897 -90.74122721 259.37949504 -94.81152344 257.18896484 C-98.4917337 255.18956458 -102.05431967 252.99987938 -105.625 250.8125 C-106.39553711 250.34054199 -107.16607422 249.86858398 -107.95996094 249.38232422 C-113.10930871 246.20869209 -118.20741562 242.96569622 -123.25 239.625 C-124.14259521 239.03682495 -124.14259521 239.03682495 -125.05322266 238.43676758 C-135.52789379 231.41631862 -135.52789379 231.41631862 -137 227 C-137.10764059 225.08573834 -137.1566986 223.16798497 -137.17408752 221.2507782 C-137.18702347 220.05210114 -137.19995941 218.85342407 -137.21328735 217.61842346 C-137.22226044 216.30147995 -137.23123352 214.98453644 -137.24047852 213.62768555 C-137.2532922 212.22812616 -137.26642772 210.82856969 -137.27986145 209.42901611 C-137.39567213 196.66301971 -137.45237798 183.89624828 -137.49662876 171.12982464 C-137.52988702 161.6936968 -137.5894868 152.25852734 -137.68413979 142.82281083 C-137.74846043 136.18663089 -137.78216354 129.55071228 -137.79337829 122.91423255 C-137.80093942 118.95088889 -137.82212203 114.98870377 -137.87640572 111.02570152 C-137.92688767 107.29636414 -137.93943764 103.56879736 -137.92315483 99.83917236 C-137.92404513 97.821978 -137.96463641 95.80492297 -138.00646973 93.78816223 C-137.91721306 85.12871189 -137.91721306 85.12871189 -135.30363274 81.91246986 C-133.26473417 80.35059902 -131.28449483 79.16533441 -129 78 C-127.60485064 77.13617103 -126.21364394 76.26591126 -124.828125 75.38671875 C-123.30453844 74.48282801 -121.77834679 73.58331837 -120.25 72.6875 C-118.4825914 71.63883195 -116.71569438 70.58930138 -114.94921875 69.5390625 C-113.99837402 68.97477539 -113.0475293 68.41048828 -112.06787109 67.82910156 C-106.38049306 64.43821852 -100.72149658 61.00045859 -95.0625 57.5625 C-94.46334778 57.1985614 -93.86419556 56.8346228 -93.24688721 56.45965576 C-71.12791433 43.01925342 -49.19574664 29.30208012 -27.5 15.1875 C-26.67878662 14.65423096 -25.85757324 14.12096191 -25.01147461 13.5715332 C-21.25472923 11.12962974 -17.5071967 8.67617787 -13.78125 6.1875 C-13.13736328 5.76186768 -12.49347656 5.33623535 -11.83007812 4.89770508 C-10.13262782 3.77520492 -8.44105465 2.64383106 -6.75 1.51171875 C-4 0 -4 0 0 0 Z " fill="#C286BD" transform="translate(243,85)"/>
<path d="M0 0 C0.0463312 12.30009203 0.08187325 24.60016332 0.10362434 36.90032482 C0.11406352 42.6117225 0.12822529 48.3230605 0.15087891 54.03442383 C0.17260232 59.54572957 0.18456762 65.05697789 0.18975449 70.56832314 C0.19345113 72.6714703 0.20066967 74.77461431 0.21146011 76.87773705 C0.22596823 79.82245055 0.22797821 82.76692645 0.22705078 85.71166992 C0.23424133 86.5820137 0.24143188 87.45235748 0.24884033 88.34907532 C0.23377598 92.76657231 -0.13895402 95.9259831 -2 100 C-2.31887523 102.23594344 -2.31887523 102.23594344 -2.31884766 104.51489258 C-2.33871735 105.37540726 -2.35858704 106.23592194 -2.37905884 107.12251282 C-2.39061005 108.0372789 -2.40216125 108.95204498 -2.4140625 109.89453125 C-2.43342865 110.84188644 -2.4527948 111.78924164 -2.4727478 112.76530457 C-2.53236371 115.78094577 -2.57885705 118.79662552 -2.625 121.8125 C-2.66319633 123.86134446 -2.70224902 125.91017314 -2.7421875 127.95898438 C-2.83805053 132.97252762 -2.92214807 137.98614603 -3 143 C-7.92869122 141.51318854 -12.31686542 139.45574145 -16.87109375 137.10546875 C-17.62242081 136.72139359 -18.37374786 136.33731842 -19.14784241 135.94160461 C-21.58040757 134.69537489 -24.00920011 133.4420181 -26.4375 132.1875 C-27.26314453 131.76259277 -28.08878906 131.33768555 -28.93945312 130.89990234 C-44.20682709 123.03785721 -59.3121147 114.90904518 -74 106 C-73.35802978 102.17143026 -71.57249631 99.56503171 -69.421875 96.37109375 C-69.05894348 95.82886673 -68.69601196 95.28663971 -68.32208252 94.72798157 C-67.13697935 92.96065598 -65.94364998 91.1990618 -64.75 89.4375 C-63.92665256 88.21350581 -63.10373895 86.98921968 -62.28125 85.76464844 C-57.55449142 78.73688817 -52.78692482 71.73689825 -48 64.75 C-47.22861694 63.62235229 -47.22861694 63.62235229 -46.44165039 62.47192383 C-43.97076689 58.86289782 -41.48672539 55.26424578 -38.98046875 51.6796875 C-38.04910437 50.32838325 -37.11809568 48.97683375 -36.1875 47.625 C-35.76017578 47.02397461 -35.33285156 46.42294922 -34.89257812 45.80371094 C-32.57772835 42.41313686 -31.48185211 40.12971602 -32 36 C-35.0699667 36.30489395 -36.59905249 36.5867427 -38.78125 38.8359375 C-39.63203125 40.09277344 -39.63203125 40.09277344 -40.5 41.375 C-41.19738281 42.38820312 -41.89476562 43.40140625 -42.61328125 44.4453125 C-42.99564941 45.01540039 -43.37801758 45.58548828 -43.77197266 46.17285156 C-45.05513267 48.0820304 -46.3592138 49.97547131 -47.66796875 51.8671875 C-56.76160665 65.04457739 -65.69329081 78.33514674 -74.66796875 91.59375 C-75.07575562 92.19608459 -75.48354248 92.79841919 -75.90368652 93.41900635 C-77.61026321 95.94093938 -79.31087992 98.46631987 -81 101 C-85.87465405 102.53936444 -90.72375888 102.06129742 -95.34375 99.90722656 C-98.77953745 98.0269382 -102.1148458 96.02744026 -105.41186523 93.91357422 C-106.19247314 93.41615723 -106.97308105 92.91874023 -107.77734375 92.40625 C-108.47077881 91.94541016 -109.16421387 91.48457031 -109.87866211 91.00976562 C-112.40198971 89.80865123 -114.23847793 89.81427038 -117 90 C-117.33 91.65 -117.66 93.3 -118 95 C-117.3090625 95.24878906 -116.618125 95.49757813 -115.90625 95.75390625 C-112.54497382 97.19509859 -109.59759636 98.9942649 -106.5 100.9375 C-105.3965625 101.62714844 -104.293125 102.31679687 -103.15625 103.02734375 C-100 105 -100 105 -97.78125 106.69140625 C-94.84087473 108.07486933 -93.14632985 108.16878511 -89.94140625 108.30078125 C-82.95818106 108.78282571 -77.91196467 111.7353726 -71.9375 115.1875 C-70.22255708 116.14434831 -68.50759709 117.10116753 -66.79164124 118.05619812 C-65.0230806 119.04362365 -63.25927684 120.03914197 -61.49609375 121.03613281 C-56.01961633 124.12405508 -50.47658346 127.08885586 -44.9375 130.0625 C-43.87958252 130.63355469 -42.82166504 131.20460937 -41.73168945 131.79296875 C-32.84912882 136.57822297 -23.90214461 141.23538218 -14.91772461 145.82641602 C-13.93682861 146.33100342 -12.95593262 146.83559082 -11.9453125 147.35546875 C-11.08437988 147.79528076 -10.22344727 148.23509277 -9.33642578 148.68823242 C-6.97556889 150.01371665 -4.99755693 151.16562619 -3 153 C-2.50057125 155.28170013 -2.50057125 155.28170013 -2.50120544 158.01013184 C-2.49162811 159.0448613 -2.48205078 160.07959076 -2.47218323 161.14567566 C-2.48192673 162.28031754 -2.49167023 163.41495941 -2.50170898 164.58398438 C-2.49343079 166.37694695 -2.49343079 166.37694695 -2.48498535 168.20613098 C-2.47320598 171.48516818 -2.47888503 174.76364854 -2.49128985 178.04266548 C-2.49932327 181.47263382 -2.48250889 184.90246572 -2.46754456 188.33239746 C-2.43671164 196.31286937 -2.4352241 204.29321458 -2.43719482 212.27373505 C-2.43858733 222.43211051 -2.42828538 232.5903887 -2.3886171 242.74869204 C-2.37611719 246.16434334 -2.37050453 249.57974103 -2.38012505 252.9954071 C-2.38931737 256.80241751 -2.38089252 260.60902204 -2.36889648 264.41601562 C-2.37661575 265.5506575 -2.38433502 266.68529938 -2.39228821 267.85432434 C-2.3855307 268.8890538 -2.37877319 269.92378326 -2.37181091 270.98986816 C-2.37239722 271.89025063 -2.37298353 272.79063309 -2.37358761 273.71829987 C-1.92179516 276.47763895 -0.99530216 277.13864255 1 279 C1.26153069 281.58774771 1.34958438 283.92899653 1.29296875 286.51171875 C1.28872391 287.23994339 1.28447906 287.96816803 1.28010559 288.71846008 C1.26332733 291.04185127 1.22567855 293.3643715 1.1875 295.6875 C1.17245197 297.26365934 1.15876377 298.83983229 1.14648438 300.41601562 C1.11342685 304.27767877 1.06165194 308.13869178 1 312 C-3.27404085 310.72496936 -6.72152159 309.11864209 -10.45703125 306.69140625 C-11.99037109 305.7020105 -11.99037109 305.7020105 -13.5546875 304.69262695 C-14.62976563 303.98968506 -15.70484375 303.28674316 -16.8125 302.5625 C-17.93318179 301.8368471 -19.05427917 301.11183566 -20.17578125 300.38745117 C-23.45579965 298.26637735 -26.72853854 296.13425132 -30 294 C-33.1657136 291.93603084 -36.33194741 289.87287743 -39.5 287.8125 C-40.53072632 287.14093872 -40.53072632 287.14093872 -41.58227539 286.45581055 C-45.55381279 283.88395999 -49.57794835 281.52863833 -53.7578125 279.30859375 C-57.42889516 277.16606293 -60.86390796 274.67606195 -64.33813477 272.23266602 C-68.13530324 269.57056631 -71.93596765 267.22371581 -76 265 C-77.77701428 263.98996453 -79.54748007 262.96835209 -81.3125 261.9375 C-82.57513672 261.20853516 -82.57513672 261.20853516 -83.86328125 260.46484375 C-86 259 -86 259 -88 256 C-90.05925139 255.27617533 -90.05925139 255.27617533 -92 255 C-92 254.34 -92 253.68 -92 253 C-92.721875 252.896875 -93.44375 252.79375 -94.1875 252.6875 C-97.27793421 251.93206053 -99.41743841 250.84468685 -102 249 C-102 248.34 -102 247.68 -102 247 C-102.85231201 246.75000244 -103.70462402 246.50000488 -104.58276367 246.24243164 C-108.23422723 244.91484015 -111.39145236 243.15630308 -114.67578125 241.12109375 C-115.5917231 240.56289696 -115.5917231 240.56289696 -116.52616882 239.99342346 C-118.45843875 238.8137171 -120.38537709 237.62559116 -122.3125 236.4375 C-123.62533269 235.63554631 -124.93848085 234.83410883 -126.25195312 234.03320312 C-127.49767923 233.27129649 -128.74313194 232.50894265 -129.98828125 231.74609375 C-130.87100456 231.20546547 -130.87100456 231.20546547 -131.77156067 230.65391541 C-135.88137712 228.11862288 -135.88137712 228.11862288 -137 227 C-137.1139514 225.1663831 -137.15745473 223.32836622 -137.17408752 221.49128723 C-137.18702347 220.2953595 -137.19995941 219.09943176 -137.21328735 217.86726379 C-137.22250825 216.52975571 -137.23156645 215.1922465 -137.24047852 213.85473633 C-137.25328433 212.45547187 -137.26641968 211.0562104 -137.27986145 209.6569519 C-137.39588216 196.86973553 -137.45241206 184.08173217 -137.49662876 171.29408741 C-137.52986928 161.83877111 -137.58941141 152.38441306 -137.68413979 142.92950803 C-137.74846486 136.28487588 -137.78216477 129.64050483 -137.79337829 122.99557322 C-137.80094136 119.02549388 -137.82213859 115.05657076 -137.87640572 111.08683205 C-137.92689273 107.34931451 -137.9394361 103.6135637 -137.92315483 99.87575912 C-137.92404517 97.85377523 -137.96463731 95.83193034 -138.00646973 93.81037903 C-137.91720863 85.12976454 -137.91720863 85.12976454 -135.30363274 81.91051292 C-133.26467403 80.34857009 -131.28504054 79.1644129 -129 78 C-127.60481561 77.13622761 -126.21360433 76.26597368 -124.828125 75.38671875 C-123.30453844 74.48282801 -121.77834679 73.58331837 -120.25 72.6875 C-118.4825914 71.63883195 -116.71569438 70.58930138 -114.94921875 69.5390625 C-113.99837402 68.97477539 -113.0475293 68.41048828 -112.06787109 67.82910156 C-106.38049306 64.43821852 -100.72149658 61.00045859 -95.0625 57.5625 C-94.46334778 57.1985614 -93.86419556 56.8346228 -93.24688721 56.45965576 C-71.12791433 43.01925342 -49.19574664 29.30208012 -27.5 15.1875 C-26.67878662 14.65423096 -25.85757324 14.12096191 -25.01147461 13.5715332 C-21.25472923 11.12962974 -17.5071967 8.67617787 -13.78125 6.1875 C-13.13736328 5.76186768 -12.49347656 5.33623535 -11.83007812 4.89770508 C-10.13262782 3.77520492 -8.44105465 2.64383106 -6.75 1.51171875 C-4 0 -4 0 0 0 Z " fill="#1BB7E1" transform="translate(243,85)"/>
<path d="M0 0 C4.40478191 1.5292073 8.05558743 3.88492922 11.875 6.5 C12.53137451 6.94287354 13.18774902 7.38574707 13.86401367 7.84204102 C15.91211585 9.22397847 17.95638079 10.61144386 20 12 C30.07577032 18.83553303 40.31881773 25.30936749 50.73046875 31.62109375 C54.47666878 33.8971843 58.2109003 36.19197862 61.9375 38.5 C62.60579834 38.90927734 63.27409668 39.31855469 63.96264648 39.74023438 C70.26997904 43.65801566 70.26997904 43.65801566 72 46 C72.36076355 49.01823425 72.36076355 49.01823425 72.34057617 52.76635742 C72.34101425 53.44954544 72.34145233 54.13273346 72.34190369 54.83662415 C72.33981482 57.09319712 72.31648037 59.34902569 72.29296875 61.60546875 C72.28737311 63.17059422 72.28310286 64.73572494 72.28010559 66.30085754 C72.26865419 70.41916424 72.2391847 74.53715325 72.20599365 78.65533447 C72.17529901 82.85806989 72.16160156 87.06085666 72.14648438 91.26367188 C72.11431507 99.50926033 72.0631154 107.75459064 72 116 C69.19174235 114.65165448 67.2527865 113.46347281 65.16015625 111.14453125 C64.65419922 110.60505859 64.14824219 110.06558594 63.62695312 109.50976562 C62.57991307 108.37383828 61.54086243 107.23049682 60.50976562 106.08007812 C58.81783941 104.22769237 58.81783941 104.22769237 56 102 C51.04621367 102.19033474 46.61525721 105.01324772 42.2890625 107.2265625 C41.44387054 107.65246674 40.59867859 108.07837097 39.72787476 108.5171814 C37.0240098 109.88079005 34.32432163 111.25242269 31.625 112.625 C28.09793898 114.41200138 24.56889511 116.19504307 21.0390625 117.9765625 C20.1844342 118.40930481 19.32980591 118.84204712 18.44927979 119.28790283 C11.92480533 122.57680855 5.32606928 125.66163347 -1.34619141 128.63818359 C-4.10924365 129.72549383 -4.10924365 129.72549383 -5 132 C-3.6696875 132.1546875 -3.6696875 132.1546875 -2.3125 132.3125 C1.13540154 133.02810221 3.01076098 134.20645659 6 136 C7.81696084 136.71007665 9.651412 137.37688045 11.5 138 C15.35092736 139.2980654 18.52740569 140.9054193 22 143 C23.60883408 143.62654264 25.23554492 144.20862231 26.875 144.75 C32.92785877 146.87424177 38.64216071 149.5549699 44.421875 152.31640625 C51.19460635 155.50313902 58.1010867 158.2005219 65.109375 160.81640625 C68 162 68 162 71 164 C71.72180937 167.89372684 71.55558556 171.85974305 71.5625 175.8125 C71.61760742 177.4531543 71.61760742 177.4531543 71.67382812 179.12695312 C71.71775904 187.13702272 71.71775904 187.13702272 68.64453125 190.83203125 C67.45315936 191.59276143 66.23414574 192.31082536 65 193 C63.33571195 194.08038179 61.67167338 195.16114795 60.0078125 196.2421875 C58.0496773 197.45765121 56.08856573 198.6683289 54.125 199.875 C51.96475735 201.21340223 49.8046036 202.55194795 47.64453125 203.890625 C45.9905835 204.9125293 45.9905835 204.9125293 44.30322266 205.95507812 C39.12759808 209.15914549 33.97105115 212.39354698 28.8125 215.625 C20.49111638 220.83091905 12.14820576 226.00080891 3.79443359 231.15454102 C-2.52907174 235.06558657 -8.80067106 239.05363328 -15.0625 243.0625 C-23.77215632 248.63430546 -32.58129684 254.01288108 -41.47265625 259.2890625 C-44.34069017 260.99431473 -47.18150499 262.7313666 -49.99609375 264.5234375 C-50.59542725 264.90322754 -51.19476074 265.28301758 -51.81225586 265.67431641 C-53.36893 266.66646255 -54.91915137 267.66871378 -56.46875 268.671875 C-59 270 -59 270 -63 270 C-63.04937279 265.33692986 -63.08570627 260.67401127 -63.10986328 256.01074219 C-63.11993188 254.42380117 -63.13358767 252.83687875 -63.15087891 251.25 C-63.17509001 248.97130753 -63.18647422 246.69285994 -63.1953125 244.4140625 C-63.20563507 243.70255035 -63.21595764 242.99103821 -63.22659302 242.25796509 C-63.22699422 240.50368335 -63.12202209 238.75003291 -63 237 C-62.01 236.01 -62.01 236.01 -61 235 C-60.68551964 232.69254399 -60.68551964 232.69254399 -60.7215271 229.9760437 C-60.71036362 228.91311096 -60.69920013 227.85017822 -60.68769836 226.7550354 C-60.68553818 225.5840329 -60.68337799 224.4130304 -60.68115234 223.20654297 C-60.67110672 221.97730103 -60.6610611 220.74805908 -60.65071106 219.48156738 C-60.62506618 216.1057235 -60.60824337 212.7300487 -60.59528303 209.35414648 C-60.57967973 205.82801845 -60.55288066 202.30197628 -60.5272522 198.77590942 C-60.48041464 192.09655681 -60.44369471 185.41718814 -60.41057932 178.73775494 C-60.37239301 171.13441456 -60.32297377 163.5311603 -60.27259517 155.92789245 C-60.16920133 140.28532383 -60.07996527 124.64270698 -60 109 C-55.47800323 106.65988822 -50.95585948 104.3200607 -46.43359375 101.98046875 C-45.43276166 101.46268388 -45.43276166 101.46268388 -44.41171074 100.93443871 C-37.14390516 97.1746539 -29.87565644 93.41580686 -22.59765625 89.67578125 C-20.94310425 88.8242749 -20.94310425 88.8242749 -19.25512695 87.95556641 C-17.60333593 87.10548202 -15.95147628 86.2555292 -14.29867554 85.40740967 C-8.01984819 82.18317832 -1.78017162 78.91031077 4.359375 75.42578125 C5.3481665 74.86785889 6.33695801 74.30993652 7.35571289 73.73510742 C9.1712313 72.70283361 10.97861258 71.65603497 12.77514648 70.59106445 C16.93022653 68.22906857 20.11103992 66.78823919 24.91796875 66.55859375 C31.24892375 66.21240346 35.82285691 63.19548821 41.125 59.9375 C42.55972656 59.08575195 42.55972656 59.08575195 44.0234375 58.21679688 C46.35913626 56.82705611 48.6836109 55.42160949 51 54 C51 52.35 51 50.7 51 49 C45.58746696 48.47620648 42.17477343 50.17718985 37.6875 52.9375 C37.05521484 53.31068359 36.42292969 53.68386719 35.77148438 54.06835938 C32.71192869 55.79881971 32.71192869 55.79881971 30 58 C28.47228759 58.13298911 26.94148179 58.23105425 25.41015625 58.3125 C20.19765464 58.79987398 16.82871894 60.26676276 12.4375 63 C3.64302884 68.17035988 -5.3569858 72.85920982 -14.4375 77.5 C-17.30774329 78.97047383 -20.17732659 80.4422332 -23.046875 81.9140625 C-23.73758087 82.26808136 -24.42828674 82.62210022 -25.1399231 82.98684692 C-31.58312134 86.29215214 -37.99626262 89.65302749 -44.39428711 93.04492188 C-45.68410696 93.72834433 -46.97493775 94.40986464 -48.26708984 95.08886719 C-49.9480619 95.97269188 -51.62450199 96.8651194 -53.30078125 97.7578125 C-56 99 -56 99 -59 99 C-59 94.38 -59 89.76 -59 85 C-58.34 85 -57.68 85 -57 85 C-56.76796875 84.319375 -56.5359375 83.63875 -56.296875 82.9375 C-54.69551388 79.3103206 -52.53275366 76.21850809 -50.25 73 C-46.84130017 68.13689834 -43.48670351 63.24819081 -40.23046875 58.28125 C-39.60043945 57.3221875 -38.97041016 56.363125 -38.32128906 55.375 C-37.07450233 53.47217981 -35.8328793 51.56596526 -34.59667969 49.65625 C-34.02723633 48.79 -33.45779297 47.92375 -32.87109375 47.03125 C-32.36505615 46.25330078 -31.85901855 45.47535156 -31.33764648 44.67382812 C-30.89622314 44.12146484 -30.4547998 43.56910156 -30 43 C-29.34 43 -28.68 43 -28 43 C-27.73372803 42.27272705 -27.46745605 41.5454541 -27.19311523 40.79614258 C-26.00312049 38.00731307 -24.63021814 35.75316554 -22.91015625 33.26171875 C-22.295354 32.36598145 -21.68055176 31.47024414 -21.04711914 30.54736328 C-20.39219482 29.6036084 -19.73727051 28.65985352 -19.0625 27.6875 C-18.39532959 26.71796387 -17.72815918 25.74842773 -17.04077148 24.74951172 C-15.68287227 22.77707335 -14.32293402 20.80603713 -12.9609375 18.83642578 C-10.63816511 15.47661881 -8.32640694 12.10934617 -6.01538086 8.74145508 C-4.01356555 5.82535075 -2.00704339 2.91250788 0 0 Z " fill="#F85B43" transform="translate(307,127)"/>
<path d="M0 0 C0.00238835 0.6156825 0.00477671 1.23136499 0.00723743 1.86570454 C0.06634196 16.83816918 0.14186257 31.81045294 0.23571491 46.78273487 C0.28070405 54.02319192 0.32011139 61.26359944 0.34643555 68.50415039 C0.36939053 74.81412031 0.40276023 81.1239339 0.44870156 87.4337799 C0.47266787 90.77564334 0.49137415 94.11735163 0.49761391 97.45929909 C0.50719124 101.18770201 0.53517478 104.91553488 0.56762695 108.64379883 C0.56619186 109.75510162 0.56475677 110.86640442 0.5632782 112.01138306 C0.57581635 113.02520554 0.58835449 114.03902802 0.60127258 115.08357239 C0.60588155 115.96572827 0.61049051 116.84788416 0.61523914 117.75677204 C1.0819895 120.47801418 2.0326901 121.15499271 4 123 C4.26153069 125.58774771 4.34958438 127.92899653 4.29296875 130.51171875 C4.28872391 131.23994339 4.28447906 131.96816803 4.28010559 132.71846008 C4.26332733 135.04185127 4.22567855 137.3643715 4.1875 139.6875 C4.17245197 141.26365934 4.15876377 142.83983229 4.14648438 144.41601562 C4.11342685 148.27767877 4.06165194 152.13869178 4 156 C-0.27404085 154.72496936 -3.72152159 153.11864209 -7.45703125 150.69140625 C-8.47982178 150.03180908 -9.5026123 149.37221191 -10.55639648 148.69262695 C-11.63091064 147.98968506 -12.7054248 147.28674316 -13.8125 146.5625 C-15.48937782 145.47307358 -17.16625684 144.38364887 -18.84346008 143.29472351 C-20.51221699 142.21041575 -22.17945404 141.12377011 -23.84667969 140.03710938 C-26.66366848 138.21727703 -29.49853881 136.43445321 -32.3515625 134.671875 C-33.1355542 134.18259521 -33.9195459 133.69331543 -34.72729492 133.18920898 C-36.16139291 132.29592736 -37.60138734 131.41201736 -39.0480957 130.53930664 C-45.40494104 126.53540903 -46.10841119 121.93245551 -47.875 114.90625 C-48.04499512 114.23710571 -48.21499023 113.56796143 -48.39013672 112.87854004 C-49.11216238 110.03601983 -49.82621985 107.19151325 -50.54101562 104.34716797 C-51.06625031 102.26198626 -51.59553474 100.17786078 -52.125 98.09375 C-52.43695313 96.85302734 -52.74890625 95.61230469 -53.0703125 94.33398438 C-54.87917615 87.84715611 -56.49568445 85.1096784 -62.3125 81.6875 C-62.98531006 81.27870605 -63.65812012 80.86991211 -64.35131836 80.44873047 C-75.36077733 73.86138633 -86.70163817 67.81473219 -97.96142578 61.66894531 C-101.33129049 59.81803778 -104.67357762 57.92764447 -108 56 C-108 55.34 -108 54.68 -108 54 C-107.46590012 53.73406036 -106.93180023 53.46812073 -106.3815155 53.19412231 C-100.71652132 50.37286835 -95.053053 47.54856789 -89.39038086 44.72265625 C-87.28951736 43.67470666 -85.18829254 42.62748106 -83.08666992 41.58105469 C-71.97418489 36.04738233 -60.89933061 30.46327228 -49.93339539 24.64407349 C-41.03622094 19.93522757 -32.01790181 15.47190553 -23 11 C-19.64467068 9.33566021 -16.29070763 7.66860946 -12.9375 6 C-11.80332642 5.43913696 -11.80332642 5.43913696 -10.64624023 4.86694336 C-0.86615192 0 -0.86615192 0 0 0 Z " fill="#423F7C" transform="translate(240,241)"/>
<path d="M0 0 C3.51471275 1.36328679 6.48981651 2.83805875 9.61328125 4.95703125 C10.51667236 5.56530762 11.42006348 6.17358398 12.35083008 6.80029297 C13.81685669 7.79633545 13.81685669 7.79633545 15.3125 8.8125 C17.44710879 10.24989838 19.5825739 11.68602565 21.71875 13.12109375 C22.57126091 13.69449493 22.57126091 13.69449493 23.44099426 14.27947998 C31.0243633 19.37259852 38.67088872 24.3699081 46.3125 29.375 C47.73284685 30.30571786 49.15317601 31.23646272 50.57348633 32.16723633 C52.51353624 33.43861031 54.45366731 34.70985799 56.39428711 35.98036194 C58.93574011 37.64455879 61.47233243 39.31488828 64 41 C63.3677624 44.64472585 61.80905004 47.00211123 59.68359375 50 C59.00514404 50.96437988 58.32669434 51.92875977 57.62768555 52.92236328 C56.90492432 53.9379834 56.18216309 54.95360352 55.4375 56 C53.9731578 58.08016586 52.50960767 60.16088954 51.046875 62.2421875 C50.34498047 63.23831055 49.64308594 64.23443359 48.91992188 65.26074219 C42.87870679 73.84552935 42.87870679 73.84552935 37.42578125 82.8046875 C36.95527344 83.52914062 36.48476563 84.25359375 36 85 C35.34 85 34.68 85 34 85 C33.75121094 85.70511719 33.50242187 86.41023438 33.24609375 87.13671875 C31.84395417 90.35856298 30.09672392 92.94692959 28.0625 95.8125 C27.25613983 96.95807257 26.45016859 98.10391898 25.64453125 99.25 C25.21736816 99.85457031 24.79020508 100.45914063 24.35009766 101.08203125 C21.96066556 104.47649392 19.60526902 107.89428678 17.25 111.3125 C16.80277588 111.95743408 16.35555176 112.60236816 15.89477539 113.2668457 C13.1363446 117.26613559 10.55682449 121.32508833 8.10449219 125.52026367 C7.74000977 126.00857666 7.37552734 126.49688965 7 127 C6.34 127 5.68 127 5 127 C5 131.62 5 136.24 5 141 C20.21226918 133.85896301 35.20246673 126.3748428 50.06982422 118.54150391 C52.83563008 117.08647156 55.60619081 115.64103078 58.37890625 114.19921875 C60.02363137 113.34151749 61.66817069 112.48345983 63.3125 111.625 C64.08489014 111.2228125 64.85728027 110.820625 65.65307617 110.40625 C70.0790854 108.08048236 74.32455151 105.58890686 78.5625 102.9375 C83.08093946 100.22266572 86.34760451 99.52247667 91.55078125 99.36328125 C96.32731172 98.65480065 100.07259994 95.65347029 104 93 C107.96559114 90.42804798 110.2131415 89.56483105 115 90 C116 91 116 91 116.34130859 93.35644531 C116 96 116 96 114.13916016 97.74511719 C113.28112793 98.25719727 112.4230957 98.76927734 111.5390625 99.296875 C110.59160156 99.86277344 109.64414062 100.42867188 108.66796875 101.01171875 C107.66378906 101.58535156 106.65960938 102.15898437 105.625 102.75 C104.65949219 103.33910156 103.69398438 103.92820312 102.69921875 104.53515625 C98.19096602 107.16749174 94.52645859 109.25417293 89.24609375 109.390625 C81.57108162 109.74611844 75.00016226 114.34906087 68.4375 118 C66.18749803 119.22672675 63.93421541 120.4472837 61.68083191 121.66778564 C60.13094044 122.50788985 58.58213029 123.34999186 57.03437805 124.19403076 C48.78318206 128.68818859 40.42904854 132.97561678 32.0625 137.25 C29.40673331 138.6077826 26.75174999 139.96707518 24.09765625 141.328125 C23.48617233 141.64108521 22.87468842 141.95404541 22.24467468 142.27648926 C17.46189918 144.7349992 12.75372037 147.31471572 8.07202148 149.95996094 C6 151 6 151 4 151 C4 192.58 4 234.16 4 277 C2.68 277.66 1.36 278.32 0 279 C-2.10854401 277.30524364 -2.92941955 276.42009182 -3.38476086 273.70991993 C-3.38936982 272.80564101 -3.39397879 271.90136209 -3.39872742 270.96968079 C-3.41126556 269.93061584 -3.42380371 268.8915509 -3.4367218 267.82099915 C-3.43528671 266.68164413 -3.43385162 265.54228912 -3.43237305 264.3684082 C-3.44766052 262.56821732 -3.44766052 262.56821732 -3.46325684 260.73165894 C-3.48829528 257.44048932 -3.50011669 254.1497662 -3.50611091 250.85853982 C-3.515484 247.41914774 -3.54168646 243.97988527 -3.56611633 240.54057312 C-3.6098145 234.0277023 -3.63834099 227.51485658 -3.66143972 221.00188369 C-3.68847369 213.58712868 -3.73238624 206.17250384 -3.77772844 198.75784171 C-3.87062216 183.50529467 -3.94228114 168.25272314 -4 153 C-7.76969921 150.97614548 -11.53991785 148.95326263 -15.31057739 146.93119812 C-16.58760941 146.24620965 -17.86451019 145.56097644 -19.14126587 144.87547302 C-27.35702552 140.46460752 -35.59486149 136.10176441 -43.875 131.8125 C-53.4185791 126.85569057 -62.88211518 121.76251517 -72.3125 116.59375 C-73.5188208 115.93415283 -73.5188208 115.93415283 -74.74951172 115.26123047 C-76.1826515 114.45806274 -77.60294038 113.63118555 -79.00439453 112.77392578 C-82.4994701 110.63778521 -84.78432853 109.64699536 -88.875 109.875 C-97.62236862 109.42610591 -104.86545664 103.63567479 -112 99 C-112.60384521 98.62979736 -113.20769043 98.25959473 -113.82983398 97.87817383 C-115.26196359 96.98280226 -116.63772149 95.99844015 -118 95 C-118.4375 92.3125 -118.4375 92.3125 -118 90 C-117.505 89.505 -117.505 89.505 -117 89 C-110.741346 89.25643653 -106.95361465 91.6141441 -101.8125 95 C-94.93064316 99.32573858 -89.31608436 101.54479165 -81 101 C-80.71619476 100.41196091 -80.43238953 99.82392181 -80.13998413 99.21806335 C-79.11079209 97.2155678 -78.00661021 95.38309153 -76.76025391 93.51098633 C-76.31863922 92.84541214 -75.87702454 92.17983795 -75.42202759 91.49409485 C-74.94502411 90.78061386 -74.46802063 90.06713287 -73.9765625 89.33203125 C-73.4751474 88.57895187 -72.9737323 87.8258725 -72.4571228 87.04997253 C-71.3906823 85.44963127 -70.32307565 83.85006659 -69.25439453 82.2512207 C-67.66228164 79.86829956 -66.07499307 77.48222293 -64.48828125 75.09570312 C-59.276999 67.27492179 -54.00252792 59.50452803 -48.5859375 51.82421875 C-47.87614243 50.81763969 -47.87614243 50.81763969 -47.15200806 49.79072571 C-45.77757993 47.85340929 -44.3906097 45.92572664 -43 44 C-42.21644135 42.89732285 -42.21644135 42.89732285 -41.41705322 41.77236938 C-40.62980865 40.68585587 -40.62980865 40.68585587 -39.82666016 39.57739258 C-39.11589828 38.58803459 -39.11589828 38.58803459 -38.39077759 37.57868958 C-37 36 -37 36 -34.1875 34.9375 C-32 35 -32 35 -31 36 C-31 40.9518303 -32.22966892 43.64289025 -35.140625 47.63671875 C-35.77419922 48.5181958 -36.40777344 49.39967285 -37.06054688 50.30786133 C-37.70056641 51.19626709 -38.34058594 52.08467285 -39 53 C-40.10470659 54.59760296 -41.203797 56.19910588 -42.296875 57.8046875 C-42.85431396 58.62219482 -43.41175293 59.43970215 -43.98608398 60.28198242 C-45.20478407 62.07351372 -46.42301614 63.86536346 -47.64086914 65.6574707 C-51.03600402 70.65274956 -54.43836142 75.6422983 -57.86611938 80.61523438 C-59.62821903 83.17365316 -61.38471857 85.73588936 -63.14050293 88.29864502 C-64.00319914 89.55501489 -64.86834425 90.80970681 -65.73596191 92.06268311 C-66.95410123 93.82262782 -68.16346871 95.58829935 -69.37109375 97.35546875 C-70.07161865 98.37278076 -70.77214355 99.39009277 -71.49389648 100.43823242 C-73.25340773 102.93574395 -73.25340773 102.93574395 -73 106 C-65.00502762 110.34263283 -57.00436078 114.67470085 -49 119 C-48.11024475 119.48095123 -48.11024475 119.48095123 -47.20251465 119.97161865 C-43.59719644 121.91997933 -39.98995098 123.86470793 -36.38049316 125.8053894 C-34.69379478 126.71298232 -33.00848813 127.62316025 -31.32324219 128.53344727 C-21.978348 133.55115249 -12.50319483 138.29066584 -3 143 C-3.01047363 141.72358643 -3.02094727 140.44717285 -3.03173828 139.13208008 C-3.06798281 134.38910739 -3.09091677 129.64614691 -3.10986328 124.90307617 C-3.11991069 122.85162293 -3.13355092 120.80018396 -3.15087891 118.7487793 C-3.17518246 115.79732738 -3.18649582 112.8460651 -3.1953125 109.89453125 C-3.21079636 108.52238213 -3.21079636 108.52238213 -3.22659302 107.12251282 C-3.22674408 106.26199814 -3.22689514 105.40148346 -3.22705078 104.51489258 C-3.231492 103.76210526 -3.23593323 103.00931793 -3.24050903 102.23371887 C-3 100 -3 100 -2.0057373 97.79833984 C-0.55827934 93.77096683 -0.69169933 89.96107385 -0.68115234 85.71166992 C-0.67110672 84.78435059 -0.6610611 83.85703125 -0.65071106 82.90161133 C-0.61988548 79.84456995 -0.60284554 76.78761614 -0.5859375 73.73046875 C-0.56722537 71.60768379 -0.54765192 69.48490626 -0.5272522 67.36213684 C-0.4759299 61.78089786 -0.43630458 56.19963476 -0.39910889 50.61828613 C-0.35906995 44.92059361 -0.30797707 39.22300141 -0.2578125 33.52539062 C-0.16105199 22.35033089 -0.0766475 11.17521451 0 0 Z " fill="#FEBB2C" transform="translate(243,85)"/>
<path d="M0 0 C4.35391006 -0.22149252 7.12276679 0.21859251 11 2.1875 C15.3256046 4.27653687 19.64593047 5.99509872 24.1875 7.5625 C28.72057263 9.13771805 32.92870125 10.86002434 37.16015625 13.10546875 C39.85062267 14.41357238 42.65348826 15.24798325 45.5 16.15234375 C51.32100671 18.12602884 57.25616385 20.32983886 62.515625 23.53125 C65.12631105 25.07467446 67.62999934 26.03258405 70.5 27 C74.35092736 28.2980654 77.52740569 29.9054193 81 32 C82.60883408 32.62654264 84.23554492 33.20862231 85.875 33.75 C91.92785877 35.87424177 97.64216071 38.5549699 103.421875 41.31640625 C110.19460635 44.50313902 117.1010867 47.2005219 124.109375 49.81640625 C127 51 127 51 130 53 C130.72180937 56.89372684 130.55558556 60.85974305 130.5625 64.8125 C130.59923828 65.90626953 130.63597656 67.00003906 130.67382812 68.12695312 C130.71775904 76.13702272 130.71775904 76.13702272 127.64453125 79.83203125 C126.45315936 80.59276143 125.23414574 81.31082536 124 82 C122.33571195 83.08038179 120.67167338 84.16114795 119.0078125 85.2421875 C117.0496773 86.45765121 115.08856573 87.6683289 113.125 88.875 C110.96475735 90.21340223 108.8046036 91.55194795 106.64453125 92.890625 C105.54189941 93.57189453 104.43926758 94.25316406 103.30322266 94.95507812 C98.12759808 98.15914549 92.97105115 101.39354698 87.8125 104.625 C79.50369401 109.82305039 71.17458913 114.98709812 62.83178711 120.13037109 C55.17158018 124.86566509 47.58187986 129.70978826 40.01708984 134.59594727 C38.70538818 135.43790649 38.70538818 135.43790649 37.3671875 136.296875 C36.59487793 136.79541992 35.82256836 137.29396484 35.02685547 137.80761719 C33 139 33 139 30 140 C30.42410156 138.75347656 30.84820312 137.50695312 31.28515625 136.22265625 C32.48578978 132.62357239 33.60907959 129.0097753 34.68359375 125.37109375 C34.97169922 124.39849609 35.25980469 123.42589844 35.55664062 122.42382812 C36.14462914 120.43040366 36.72795377 118.43559768 37.30664062 116.43945312 C38.62375182 112.01877033 39.93862119 107.90057867 42.16015625 103.84765625 C44.34108565 99.62813747 45.48815962 95.78138456 45 91 C43.66840397 87.34253974 41.76158876 84.13472409 39.75 80.8125 C38.62925448 78.86662829 37.51216112 76.91864922 36.3984375 74.96875 C35.82834961 73.98003906 35.25826172 72.99132812 34.67089844 71.97265625 C32.06547026 67.33740005 29.71699644 62.58483023 27.375 57.8125 C24.00697611 51.00384739 20.59988139 44.22243959 17.0625 37.5 C16.66611328 36.74477051 16.26972656 35.98954102 15.86132812 35.21142578 C13.53855745 30.81686962 11.148158 26.46670348 8.70703125 22.13671875 C8.15329834 21.14671875 7.59956543 20.15671875 7.02905273 19.13671875 C5.94984717 17.21246736 4.85997095 15.29415049 3.75805664 13.3828125 C-0.75598417 5.31826072 -0.75598417 5.31826072 0 0 Z " fill="#FEA53E" transform="translate(248,238)"/>
<path d="M0 0 C1.32 0 2.64 0 4 0 C4.0463312 12.30009203 4.08187325 24.60016332 4.10362434 36.90032482 C4.11406352 42.6117225 4.12822529 48.3230605 4.15087891 54.03442383 C4.17260232 59.54572957 4.18456762 65.05697789 4.18975449 70.56832314 C4.19345113 72.6714703 4.20066967 74.77461431 4.21146011 76.87773705 C4.22596823 79.82245055 4.22797821 82.76692645 4.22705078 85.71166992 C4.23424133 86.5820137 4.24143188 87.45235748 4.24884033 88.34907532 C4.23377598 92.76657231 3.86104598 95.9259831 2 100 C1.68112477 102.23594344 1.68112477 102.23594344 1.68115234 104.51489258 C1.66128265 105.37540726 1.64141296 106.23592194 1.62094116 107.12251282 C1.60938995 108.0372789 1.59783875 108.95204498 1.5859375 109.89453125 C1.56657135 110.84188644 1.5472052 111.78924164 1.5272522 112.76530457 C1.46763629 115.78094577 1.42114295 118.79662552 1.375 121.8125 C1.33680367 123.86134446 1.29775098 125.91017314 1.2578125 127.95898438 C1.16194947 132.97252762 1.07785193 137.98614603 1 143 C-3.92869122 141.51318854 -8.31686542 139.45574145 -12.87109375 137.10546875 C-13.62242081 136.72139359 -14.37374786 136.33731842 -15.14784241 135.94160461 C-17.58040757 134.69537489 -20.00920011 133.4420181 -22.4375 132.1875 C-23.26314453 131.76259277 -24.08878906 131.33768555 -24.93945312 130.89990234 C-40.20682709 123.03785721 -55.3121147 114.90904518 -70 106 C-69.35802978 102.17143026 -67.57249631 99.56503171 -65.421875 96.37109375 C-65.05894348 95.82886673 -64.69601196 95.28663971 -64.32208252 94.72798157 C-63.13697935 92.96065598 -61.94364998 91.1990618 -60.75 89.4375 C-59.92665256 88.21350581 -59.10373895 86.98921968 -58.28125 85.76464844 C-53.55449142 78.73688817 -48.78692482 71.73689825 -44 64.75 C-43.48574463 63.99823486 -42.97148926 63.24646973 -42.44165039 62.47192383 C-39.97076689 58.86289782 -37.48672539 55.26424578 -34.98046875 51.6796875 C-34.04910437 50.32838325 -33.11809568 48.97683375 -32.1875 47.625 C-31.76017578 47.02397461 -31.33285156 46.42294922 -30.89257812 45.80371094 C-28.57772835 42.41313686 -27.48185211 40.12971602 -28 36 C-31.2496233 36.29134554 -32.65272562 36.63013867 -34.921875 39.046875 C-35.52515625 39.93890625 -36.1284375 40.8309375 -36.75 41.75 C-37.44222656 42.73742187 -38.13445312 43.72484375 -38.84765625 44.7421875 C-40.31358603 46.96103584 -41.70503946 49.16259624 -43.05859375 51.4453125 C-48.23432764 59.93370839 -53.22307295 63.45101545 -63 66 C-64.0003125 66.31324219 -65.000625 66.62648438 -66.03125 66.94921875 C-71.16629667 68.5080722 -75.64081722 69.35727885 -81 69 C-81.32613281 68.22914063 -81.65226563 67.45828125 -81.98828125 66.6640625 C-82.42527344 65.66117187 -82.86226562 64.65828125 -83.3125 63.625 C-83.74175781 62.62726563 -84.17101562 61.62953125 -84.61328125 60.6015625 C-85.8738406 57.74225492 -85.8738406 57.74225492 -89 56 C-88.44876465 55.67950684 -87.8975293 55.35901367 -87.32958984 55.02880859 C-68.77301853 44.21466159 -50.69615076 32.7398054 -32.72094727 20.99121094 C-24.7525966 15.80118869 -16.68513314 10.77213002 -8.60400391 5.76000977 C-7.13906494 4.85013306 -7.13906494 4.85013306 -5.64453125 3.921875 C-4.33512573 3.11121582 -4.33512573 3.11121582 -2.99926758 2.28417969 C-1.08171878 1.15265132 -1.08171878 1.15265132 0 0 Z " fill="#44B870" transform="translate(239,85)"/>
<path d="M0 0 C4.40478191 1.5292073 8.05558743 3.88492922 11.875 6.5 C12.53137451 6.94287354 13.18774902 7.38574707 13.86401367 7.84204102 C15.91211585 9.22397847 17.95638079 10.61144386 20 12 C30.07420553 18.83447146 40.31566049 25.30660824 50.72607422 31.61669922 C54.49723442 33.91081493 58.25139984 36.23174644 62 38.5625 C62.67667725 38.98015625 63.35335449 39.3978125 64.05053711 39.828125 C66.5914885 41.41141157 68.87535168 42.87535168 71 45 C71.24050903 47.02481079 71.24050903 47.02481079 71.22705078 49.54150391 C71.22682419 50.95274033 71.22682419 50.95274033 71.22659302 52.39248657 C71.21627045 53.41023163 71.20594788 54.42797668 71.1953125 55.4765625 C71.1924826 56.51694672 71.18965271 57.55733093 71.18673706 58.62924194 C71.17551704 61.96127694 71.15040915 65.29304586 71.125 68.625 C71.11497256 70.88020446 71.1058463 73.13541312 71.09765625 75.390625 C71.07557178 80.92717454 71.04207639 86.46356827 71 92 C70.15695312 92.40992188 69.31390625 92.81984375 68.4453125 93.2421875 C67.34960938 93.78101563 66.25390625 94.31984375 65.125 94.875 C64.03445313 95.40867187 62.94390625 95.94234375 61.8203125 96.4921875 C58.96117453 97.84535937 58.96117453 97.84535937 57 100 C56.01 100 55.02 100 54 100 C52.7890625 98.42578125 52.7890625 98.42578125 51.625 96.3125 C49.47950731 92.64836038 47.09542004 89.93250319 44 87 C41.68984277 84.15672956 39.88271575 81.13785958 38 78 C37.48566406 77.29230469 36.97132813 76.58460938 36.44140625 75.85546875 C35.88324219 75.07816406 35.32507813 74.30085938 34.75 73.5 C34.20859375 72.7678125 33.6671875 72.035625 33.109375 71.28125 C31.67537467 68.33246058 31.99624301 67.08465114 33 64 C34.76586914 62.5144043 34.76586914 62.5144043 37.03515625 61.32421875 C38.24848633 60.67163086 38.24848633 60.67163086 39.48632812 60.00585938 C40.33646484 59.57080078 41.18660156 59.13574219 42.0625 58.6875 C42.91650391 58.23310547 43.77050781 57.77871094 44.65039062 57.31054688 C46.75927182 56.19130825 48.87529814 55.08881857 51 54 C51 52.35 51 50.7 51 49 C45.58746696 48.47620648 42.17477343 50.17718985 37.6875 52.9375 C37.05521484 53.31068359 36.42292969 53.68386719 35.77148438 54.06835938 C32.71192869 55.79881971 32.71192869 55.79881971 30 58 C28.47228759 58.13298911 26.94148179 58.23105425 25.41015625 58.3125 C20.19765464 58.79987398 16.82871894 60.26676276 12.4375 63 C3.64302884 68.17035988 -5.3569858 72.85920982 -14.4375 77.5 C-17.30774329 78.97047383 -20.17732659 80.4422332 -23.046875 81.9140625 C-23.73758087 82.26808136 -24.42828674 82.62210022 -25.1399231 82.98684692 C-31.58312134 86.29215214 -37.99626262 89.65302749 -44.39428711 93.04492188 C-45.68410696 93.72834433 -46.97493775 94.40986464 -48.26708984 95.08886719 C-49.9480619 95.97269188 -51.62450199 96.8651194 -53.30078125 97.7578125 C-56 99 -56 99 -59 99 C-59 94.38 -59 89.76 -59 85 C-58.34 85 -57.68 85 -57 85 C-56.76796875 84.319375 -56.5359375 83.63875 -56.296875 82.9375 C-54.69551388 79.3103206 -52.53275366 76.21850809 -50.25 73 C-46.84130017 68.13689834 -43.48670351 63.24819081 -40.23046875 58.28125 C-39.60043945 57.3221875 -38.97041016 56.363125 -38.32128906 55.375 C-37.07450233 53.47217981 -35.8328793 51.56596526 -34.59667969 49.65625 C-34.02723633 48.79 -33.45779297 47.92375 -32.87109375 47.03125 C-32.36505615 46.25330078 -31.85901855 45.47535156 -31.33764648 44.67382812 C-30.89622314 44.12146484 -30.4547998 43.56910156 -30 43 C-29.34 43 -28.68 43 -28 43 C-27.73372803 42.27272705 -27.46745605 41.5454541 -27.19311523 40.79614258 C-26.00312049 38.00731307 -24.63021814 35.75316554 -22.91015625 33.26171875 C-22.295354 32.36598145 -21.68055176 31.47024414 -21.04711914 30.54736328 C-20.39219482 29.6036084 -19.73727051 28.65985352 -19.0625 27.6875 C-18.39532959 26.71796387 -17.72815918 25.74842773 -17.04077148 24.74951172 C-15.68287227 22.77707335 -14.32293402 20.80603713 -12.9609375 18.83642578 C-10.63816511 15.47661881 -8.32640694 12.10934617 -6.01538086 8.74145508 C-4.01356555 5.82535075 -2.00704339 2.91250788 0 0 Z " fill="#FE8B34" transform="translate(307,127)"/>
<path d="M0 0 C0.33 0 0.66 0 1 0 C1 23.1 1 46.2 1 70 C-2.29568302 68.35215849 -3.55508598 67.67637831 -5.83984375 65.14453125 C-6.34580078 64.60505859 -6.85175781 64.06558594 -7.37304688 63.50976562 C-8.42008693 62.37383828 -9.45913757 61.23049682 -10.49023438 60.08007812 C-12.18216059 58.22769237 -12.18216059 58.22769237 -15 56 C-19.93926598 56.19464533 -24.35738575 58.99036279 -28.67578125 61.19140625 C-29.51860153 61.61493881 -30.36142181 62.03847137 -31.2297821 62.47483826 C-33.9268988 63.83176849 -36.61974481 65.19693843 -39.3125 66.5625 C-41.0810995 67.45433294 -42.84997725 68.3456143 -44.61914062 69.23632812 C-45.92140846 69.89267746 -45.92140846 69.89267746 -47.24998474 70.56228638 C-48.98743485 71.43764106 -50.72527687 72.31221828 -52.46351624 73.18600464 C-56.55573666 75.24648423 -60.6345807 77.32604778 -64.68725586 79.46337891 C-65.41538986 79.84203598 -66.14352386 80.22069305 -66.89372253 80.61082458 C-68.24468523 81.31413608 -69.59052906 82.02740938 -70.92988586 82.75257874 C-74.59354253 84.6449378 -76.93048627 85.45056435 -80.9375 84.25 C-83.015625 83.1953125 -83.015625 83.1953125 -85 82 C-86.38845162 81.35876853 -87.78471557 80.73423849 -89.1875 80.125 C-90.29544922 79.61646484 -90.29544922 79.61646484 -91.42578125 79.09765625 C-94.53095068 77.7736007 -97.68684998 76.67157291 -100.875 75.5625 C-106.17640611 73.70615372 -111.23315635 71.59162588 -116.3125 69.203125 C-120.77697946 67.20449175 -125.38023773 65.59949216 -130 64 C-127.79742659 61.58805153 -125.66515167 60.1325773 -122.765625 58.64453125 C-121.89736084 58.19529297 -121.02909668 57.74605469 -120.13452148 57.28320312 C-119.18262939 56.79787109 -118.2307373 56.31253906 -117.25 55.8125 C-116.24718994 55.29494141 -115.24437988 54.77738281 -114.21118164 54.24414062 C-111.4137829 52.80147032 -108.61388037 51.36381107 -105.81256104 49.92877197 C-100.68153449 47.29958953 -95.55445644 44.66273061 -90.42843628 42.02380371 C-88.43714386 40.99981686 -86.44430618 39.97888088 -84.45141602 38.95800781 C-78.40372747 35.85169485 -72.4003718 32.7008491 -66.484375 29.34765625 C-65.49638916 28.79013672 -64.50840332 28.23261719 -63.49047852 27.65820312 C-61.69287182 26.6348465 -59.90340049 25.59698527 -58.12475586 24.54101562 C-51.43301803 20.73140625 -45.60973544 20 -38 20 C-37.88398438 20.57878906 -37.76796875 21.15757812 -37.6484375 21.75390625 C-36.9534251 24.16132874 -35.99232792 25.84507393 -34.625 27.9375 C-34.17382812 28.63617188 -33.72265625 29.33484375 -33.2578125 30.0546875 C-32.84273438 30.69664062 -32.42765625 31.33859375 -32 32 C-31.505 32.845625 -31.01 33.69125 -30.5 34.5625 C-27.79047386 38.96547998 -25.02086843 43.0028727 -21.3125 46.625 C-18.96953573 49.03128763 -17.99677308 50.82844928 -17 54 C-16.12988281 53.51080078 -16.12988281 53.51080078 -15.2421875 53.01171875 C-2.7079646 46 -2.7079646 46 0 46 C0 30.82 0 15.64 0 0 Z " fill="#F73870" transform="translate(378,173)"/>
<path d="M0 0 C1.67542976 0.28604898 3.34385343 0.61781233 5 1 C4.89274991 5.93350422 3.78080757 8.64646516 0.86328125 12.640625 C0.22914307 13.52153809 -0.40499512 14.40245117 -1.05834961 15.31005859 C-1.69909424 16.19773926 -2.33983887 17.08541992 -3 18 C-4.10489097 19.59747544 -5.20398584 21.19897733 -6.296875 22.8046875 C-6.85431396 23.62219482 -7.41175293 24.43970215 -7.98608398 25.28198242 C-9.20478407 27.07351372 -10.42301614 28.86536346 -11.64086914 30.6574707 C-15.03600402 35.65274956 -18.43836142 40.6422983 -21.86611938 45.61523438 C-23.62821903 48.17365316 -25.38471857 50.73588936 -27.14050293 53.29864502 C-28.00319914 54.55501489 -28.86834425 55.80970681 -29.73596191 57.06268311 C-30.95410123 58.82262782 -32.16346871 60.58829935 -33.37109375 62.35546875 C-34.4218811 63.88143677 -34.4218811 63.88143677 -35.49389648 65.43823242 C-37.25340773 67.93574395 -37.25340773 67.93574395 -37 71 C-29.00502762 75.34263283 -21.00436078 79.67470085 -13 84 C-12.11024475 84.48095123 -12.11024475 84.48095123 -11.20251465 84.97161865 C-7.59719644 86.91997933 -3.98995098 88.86470793 -0.38049316 90.8053894 C1.30620522 91.71298232 2.99151187 92.62316025 4.67675781 93.53344727 C14.021652 98.55115249 23.49680517 103.29066584 33 108 C32.98952637 106.72358643 32.97905273 105.44717285 32.96826172 104.13208008 C32.93201719 99.38910739 32.90908323 94.64614691 32.89013672 89.90307617 C32.88008931 87.85162293 32.86644908 85.80018396 32.84912109 83.7487793 C32.82481754 80.79732738 32.81350418 77.8460651 32.8046875 74.89453125 C32.78920364 73.52238213 32.78920364 73.52238213 32.77340698 72.12251282 C32.77261922 67.63506945 32.86160098 64.07331716 35 60 C35.66 60 36.32 60 37 60 C40.2742406 65.30978349 40.40082506 69.52336243 40.29296875 75.5546875 C40.28872391 76.45623566 40.28447906 77.35778381 40.28010559 78.28665161 C40.26339058 81.14974565 40.22575192 84.01212079 40.1875 86.875 C40.17244387 88.82290646 40.15875709 90.77082402 40.14648438 92.71875 C40.11351058 97.47944122 40.06177813 102.23959896 40 107 C54.15963833 99.96970071 68.30696495 92.93153074 82.265625 85.5078125 C85.80592156 83.62522562 89.36045296 81.77199903 92.921875 79.9296875 C93.94176514 79.40133301 94.96165527 78.87297852 96.01245117 78.32861328 C97.97751472 77.31155566 99.94373692 76.29673202 101.91137695 75.28466797 C107.34301762 72.4682617 112.57027977 69.48428685 117.70874023 66.15917969 C120.25836288 64.86929068 122.16278914 64.607164 125 64.5 C131.07178589 64.25139144 135.08405268 61.32136273 140 58 C143.96559114 55.42804798 146.2131415 54.56483105 151 55 C152 56 152 56 152.34130859 58.35644531 C152 61 152 61 150.13916016 62.74511719 C149.28112793 63.25719727 148.4230957 63.76927734 147.5390625 64.296875 C146.59160156 64.86277344 145.64414062 65.42867188 144.66796875 66.01171875 C143.66378906 66.58535156 142.65960938 67.15898437 141.625 67.75 C140.65949219 68.33910156 139.69398438 68.92820312 138.69921875 69.53515625 C134.19096602 72.16749174 130.52645859 74.25417293 125.24609375 74.390625 C117.57108162 74.74611844 111.00016226 79.34906087 104.4375 83 C102.18749803 84.22672675 99.93421541 85.4472837 97.68083191 86.66778564 C96.13094044 87.50788985 94.58213029 88.34999186 93.03437805 89.19403076 C84.78318206 93.68818859 76.42904854 97.97561678 68.0625 102.25 C65.40673331 103.6077826 62.75174999 104.96707518 60.09765625 106.328125 C59.48617233 106.64108521 58.87468842 106.95404541 58.24467468 107.27648926 C53.46189918 109.7349992 48.75372037 112.31471572 44.07202148 114.95996094 C42 116 42 116 40 116 C40 157.58 40 199.16 40 242 C38.02 242.99 38.02 242.99 36 244 C33.89145599 242.30524364 33.07058045 241.42009182 32.61523914 238.70991993 C32.61063018 237.80564101 32.60602121 236.90136209 32.60127258 235.96968079 C32.58873444 234.93061584 32.57619629 233.8915509 32.5632782 232.82099915 C32.56471329 231.68164413 32.56614838 230.54228912 32.56762695 229.3684082 C32.55233948 227.56821732 32.55233948 227.56821732 32.53674316 225.73165894 C32.51170472 222.44048932 32.49988331 219.1497662 32.49388909 215.85853982 C32.484516 212.41914774 32.45831354 208.97988527 32.43388367 205.54057312 C32.3901855 199.0277023 32.36165901 192.51485658 32.33856028 186.00188369 C32.31152631 178.58712868 32.26761376 171.17250384 32.22227156 163.75784171 C32.12937784 148.50529467 32.05771886 133.25272314 32 118 C28.23030079 115.97614548 24.46008215 113.95326263 20.68942261 111.93119812 C19.41239059 111.24620965 18.13548981 110.56097644 16.85873413 109.87547302 C8.64297448 105.46460752 0.40513851 101.10176441 -7.875 96.8125 C-17.4185791 91.85569057 -26.88211518 86.76251517 -36.3125 81.59375 C-37.5188208 80.93415283 -37.5188208 80.93415283 -38.74951172 80.26123047 C-40.1826515 79.45806274 -41.60294038 78.63118555 -43.00439453 77.77392578 C-46.4994701 75.63778521 -48.78432853 74.64699536 -52.875 74.875 C-61.62236862 74.42610591 -68.86545664 68.63567479 -76 64 C-76.90576782 63.44469604 -76.90576782 63.44469604 -77.82983398 62.87817383 C-79.26196359 61.98280226 -80.63772149 60.99844015 -82 60 C-82.4375 57.3125 -82.4375 57.3125 -82 55 C-81.505 54.505 -81.505 54.505 -81 54 C-74.741346 54.25643653 -70.95361465 56.6141441 -65.8125 60 C-58.93064316 64.32573858 -53.31608436 66.54479165 -45 66 C-44.71619476 65.41196091 -44.43238953 64.82392181 -44.13998413 64.21806335 C-43.11079209 62.2155678 -42.00661021 60.38309153 -40.76025391 58.51098633 C-40.31863922 57.84541214 -39.87702454 57.17983795 -39.42202759 56.49409485 C-38.94502411 55.78061386 -38.46802063 55.06713287 -37.9765625 54.33203125 C-37.4751474 53.57895187 -36.9737323 52.8258725 -36.4571228 52.04997253 C-35.3906823 50.44963127 -34.32307565 48.85006659 -33.25439453 47.2512207 C-31.66228164 44.86829956 -30.07499307 42.48222293 -28.48828125 40.09570312 C-23.276999 32.27492179 -18.00252792 24.50452803 -12.5859375 16.82421875 C-12.11274078 16.15316605 -11.63954407 15.48211334 -11.15200806 14.79072571 C-2.26719755 2.26719755 -2.26719755 2.26719755 0 0 Z " fill="#F8F9F8" transform="translate(207,120)"/>
<path d="M0 0 C0.495 1.485 0.495 1.485 1 3 C-0.3984375 5.41015625 -0.3984375 5.41015625 -2.375 8.0625 C-4.89507622 11.40431208 -4.89507622 11.40431208 -7 15 C-7.66 15 -8.32 15 -9 15 C-9.23847656 15.69609375 -9.47695312 16.3921875 -9.72265625 17.109375 C-11.22060348 20.49922499 -13.23666492 23.2977327 -15.4375 26.25 C-20.74839786 33.53202264 -25.62943484 41.04946389 -30.48339844 48.640625 C-32.12556304 51.19533825 -33.78357562 53.73922672 -35.4453125 56.28125 C-36.02627686 57.17054199 -36.60724121 58.05983398 -37.20581055 58.97607422 C-38.33101623 60.69727564 -39.4574145 62.41769822 -40.58520508 64.13720703 C-43.54979672 68.6808513 -46.36238921 73.25865627 -49 78 C-49.66 78 -50.32 78 -51 78 C-51.66 79.98 -52.32 81.96 -53 84 C-57.62973957 84 -59.8766126 82.51576202 -63.625 80.125 C-64.97103795 79.29165125 -66.31876832 78.46103139 -67.66796875 77.6328125 C-68.3748584 77.1987207 -69.08174805 76.76462891 -69.81005859 76.31738281 C-73.46702195 74.11749716 -77.19934104 72.0579243 -80.9375 70 C-81.68257812 69.58911133 -82.42765625 69.17822266 -83.1953125 68.75488281 C-84.7024753 67.92386083 -86.20979944 67.09313138 -87.71728516 66.26269531 C-91.53092889 64.15315891 -95.32816141 62.01459352 -99.125 59.875 C-99.81843506 59.48441406 -100.51187012 59.09382813 -101.22631836 58.69140625 C-102.81778281 57.79469174 -104.40893056 56.89741519 -106 56 C-106 55.34 -106 54.68 -106 54 C-105.46590012 53.73406036 -104.93180023 53.46812073 -104.3815155 53.19412231 C-98.71652132 50.37286835 -93.053053 47.54856789 -87.39038086 44.72265625 C-85.28951736 43.67470666 -83.18829254 42.62748106 -81.08666992 41.58105469 C-69.97418489 36.04738233 -58.89933061 30.46327228 -47.93339539 24.64407349 C-39.03622094 19.93522757 -30.01790181 15.47190553 -21 11 C-17.64467068 9.33566021 -14.29070763 7.66860946 -10.9375 6 C-9.80332642 5.43913696 -9.80332642 5.43913696 -8.64624023 4.86694336 C-5.64087907 3.37136151 -2.79700092 1.86466728 0 0 Z " fill="#3663A7" transform="translate(238,241)"/>
<path d="M0 0 C2.92260229 1.3182367 3.39881449 2.49248196 4.546875 5.4453125 C5.03607422 6.64994141 5.03607422 6.64994141 5.53515625 7.87890625 C6.234375 10.0078125 6.234375 10.0078125 6.234375 12.0078125 C16.46969176 10.21545288 26.40146482 7.34504262 36.234375 4.0078125 C32.00061685 12.23379187 26.77084204 19.77060635 21.546875 27.3828125 C20.6708646 28.66511916 19.79521097 29.94766962 18.91992188 31.23046875 C17.32423469 33.56841898 15.72634417 35.90483028 14.1262207 38.23974609 C12.81747307 40.15464875 11.52095336 42.07794497 10.234375 44.0078125 C5.35972095 45.54717694 0.51061612 45.06910992 -4.109375 42.91503906 C-7.54516245 41.0347507 -10.8804708 39.03525276 -14.17749023 36.92138672 C-14.95809814 36.42396973 -15.73870605 35.92655273 -16.54296875 35.4140625 C-17.58312134 34.72280273 -17.58312134 34.72280273 -18.64428711 34.01757812 C-21.16761471 32.81646373 -23.00410293 32.82208288 -25.765625 33.0078125 C-26.095625 34.6578125 -26.425625 36.3078125 -26.765625 38.0078125 C-26.0746875 38.25660156 -25.38375 38.50539062 -24.671875 38.76171875 C-21.31059882 40.20291109 -18.36322136 42.0020774 -15.265625 43.9453125 C-14.1621875 44.63496094 -13.05875 45.32460937 -11.921875 46.03515625 C-10.35953125 47.01162109 -10.35953125 47.01162109 -8.765625 48.0078125 C-7.8065625 48.56597656 -6.8475 49.12414062 -5.859375 49.69921875 C-5.1684375 50.13105469 -4.4775 50.56289062 -3.765625 51.0078125 C-3.765625 51.3378125 -3.765625 51.6678125 -3.765625 52.0078125 C-4.55324219 51.93175781 -5.34085938 51.85570312 -6.15234375 51.77734375 C-11.12536408 51.84208129 -14.91883094 52.1573707 -18.49609375 55.74169922 C-22.15176969 60.40396425 -25.19486548 65.46917844 -28.24755859 70.53857422 C-30.42753812 74.08445922 -32.82207399 77.45304244 -35.265625 80.8203125 C-36.0184375 81.87863281 -36.77125 82.93695313 -37.546875 84.02734375 C-39.85711629 87.13071365 -42.22161932 90.09353202 -44.765625 93.0078125 C-45.095625 93.0078125 -45.425625 93.0078125 -45.765625 93.0078125 C-45.9512703 84.50633102 -46.09327009 76.00570076 -46.18012238 67.50269127 C-46.22181572 63.55396137 -46.27832719 59.60662132 -46.36914062 55.65869141 C-46.4562904 51.84601907 -46.50394318 48.03468011 -46.52464294 44.22108841 C-46.53938624 42.76888663 -46.5681801 41.31675516 -46.61146545 39.86512375 C-46.9361808 28.52057071 -46.9361808 28.52057071 -44.09413147 24.84767151 C-42.05302361 23.28566264 -40.074961 22.12587779 -37.765625 21.0078125 C-36.93861084 20.46664795 -36.11159668 19.9254834 -35.25952148 19.36791992 C-34.55899658 18.95388916 -33.85847168 18.5398584 -33.13671875 18.11328125 C-31.93607788 17.39821411 -31.93607788 17.39821411 -30.71118164 16.66870117 C-29.88352295 16.18248291 -29.05586426 15.69626465 -28.203125 15.1953125 C-26.43978152 14.1541921 -24.6767639 13.11251962 -22.9140625 12.0703125 C-22.04749023 11.55855469 -21.18091797 11.04679688 -20.28808594 10.51953125 C-17.93762699 9.11089383 -15.61724062 7.66512897 -13.3046875 6.1953125 C-12.62865479 5.77096924 -11.95262207 5.34662598 -11.25610352 4.90942383 C-10.0045041 4.12125061 -8.75968344 3.32216941 -7.52319336 2.51049805 C-4.89765152 0.87498296 -3.12311609 0.00882236 0 0 Z " fill="#1B6A96" transform="translate(151.765625,141.9921875)"/>
<path d="M0 0 C2.31 0.99 4.62 1.98 7 3 C7.1746354 6.89526499 7.28096492 10.7895219 7.375 14.6875 C7.42527344 15.79029297 7.47554688 16.89308594 7.52734375 18.02929688 C7.67512638 26.18197187 7.67512638 26.18197187 4.65625 29.83984375 C3.46098812 30.59824707 2.23804882 31.31366066 1 32 C-0.66459884 33.07990289 -2.32860475 34.16072 -3.9921875 35.2421875 C-5.9503227 36.45765121 -7.91143427 37.6683289 -9.875 38.875 C-12.03524265 40.21340223 -14.1953964 41.55194795 -16.35546875 42.890625 C-17.45810059 43.57189453 -18.56073242 44.25316406 -19.69677734 44.95507812 C-24.87240192 48.15914549 -30.02894885 51.39354698 -35.1875 54.625 C-43.49630599 59.82305039 -51.82541087 64.98709812 -60.16821289 70.13037109 C-67.82841982 74.86566509 -75.41812014 79.70978826 -82.98291016 84.59594727 C-84.29461182 85.43790649 -84.29461182 85.43790649 -85.6328125 86.296875 C-86.40512207 86.79541992 -87.17743164 87.29396484 -87.97314453 87.80761719 C-90 89 -90 89 -93 90 C-92.57589844 88.75347656 -92.15179688 87.50695312 -91.71484375 86.22265625 C-90.51421022 82.62357239 -89.39092041 79.0097753 -88.31640625 75.37109375 C-87.88424805 73.91219727 -87.88424805 73.91219727 -87.44335938 72.42382812 C-86.85537086 70.43040366 -86.27204623 68.43559768 -85.69335938 66.43945312 C-83.94868782 60.58372921 -81.83771255 55.40658918 -79 50 C-78.20816401 47.68019629 -77.59523532 45.38094127 -77 43 C-76.28328125 42.88527344 -75.5665625 42.77054687 -74.828125 42.65234375 C-62.34676781 39.77335666 -50.2262945 30.3562789 -39.3515625 23.80078125 C-38.28679687 23.16527344 -37.22203125 22.52976562 -36.125 21.875 C-35.19945312 21.31554687 -34.27390625 20.75609375 -33.3203125 20.1796875 C-31 19 -31 19 -28 19 C-28 18.34 -28 17.68 -28 17 C-27.37996094 16.67128906 -26.75992188 16.34257812 -26.12109375 16.00390625 C-19.60111267 12.50190768 -13.24453666 8.7906048 -6.95288086 4.89672852 C-2.2144167 2 -2.2144167 2 0 2 C0 1.34 0 0.68 0 0 Z " fill="#FE8C3A" transform="translate(371,288)"/>
<path d="M0 0 C1.61572266 1.29101562 1.61572266 1.29101562 3.1640625 2.90625 C3.72867188 3.48503906 4.29328125 4.06382812 4.875 4.66015625 C5.4525 5.26730469 6.03 5.87445313 6.625 6.5 C7.78169215 7.70000441 8.94045249 8.89801974 10.1015625 10.09375 C10.86460693 10.89329102 10.86460693 10.89329102 11.64306641 11.70898438 C12.9907948 13.117281 12.9907948 13.117281 15 14 C15 29.84 15 45.68 15 62 C11.16816236 61.04204059 7.64443338 59.73255975 4 58.25 C3.33863037 57.98268066 2.67726074 57.71536133 1.99584961 57.43994141 C-0.00406562 56.62978221 -2.0021454 55.8152252 -4 55 C-5.11246094 54.54882812 -6.22492188 54.09765625 -7.37109375 53.6328125 C-11.63512061 51.88374671 -15.84841883 50.12972978 -19.9375 48 C-23.32682942 46.2454407 -26.80148272 44.90100531 -30.375 43.5625 C-35.34260724 41.69605797 -40.01856924 39.56279586 -44.7265625 37.125 C-47.45904528 35.77284357 -50.23667021 34.71389046 -53.10546875 33.69140625 C-56.12674833 32.58879494 -59.05406997 31.28884439 -62 30 C-61 27 -61 27 -58.9609375 25.71875 C-58.10757812 25.3165625 -57.25421875 24.914375 -56.375 24.5 C-55.53710938 24.0978125 -54.69921875 23.695625 -53.8359375 23.28125 C-51.87234018 22.39411512 -49.89343878 21.54037968 -47.90356445 20.71386719 C-43.39690908 18.78530109 -39.06403939 16.53861281 -34.70703125 14.296875 C-32.92543365 13.39002861 -31.14352331 12.48379642 -29.36132812 11.578125 C-26.57352828 10.15943751 -23.787773 8.737261 -21.00708008 7.3046875 C-18.30834991 5.91607808 -15.60230349 4.54274977 -12.89453125 3.171875 C-12.0621846 2.73864929 -11.22983795 2.30542358 -10.37226868 1.85906982 C-9.59433456 1.46826233 -8.81640045 1.07745483 -8.01489258 0.67480469 C-7.33429276 0.32633484 -6.65369293 -0.02213501 -5.95246887 -0.38116455 C-3.5593694 -1.13965797 -2.33036122 -0.86329749 0 0 Z " fill="#8948A7" transform="translate(364,229)"/>
<path d="M0 0 C4.72283934 1.21098445 8.09238269 3.28795375 12.03125 6.01953125 C16.78923693 9.19360937 21.70879292 12.10452333 26.61621094 15.04077148 C27.36676758 15.49395752 28.11732422 15.94714355 28.890625 16.4140625 C29.56125977 16.8157666 30.23189453 17.2174707 30.92285156 17.63134766 C31.60831055 18.08300293 32.29376953 18.5346582 33 19 C33.89968506 19.49322754 34.79937012 19.98645508 35.72631836 20.49462891 C39.32566665 24.46075284 38.62062838 28.50535274 38.48828125 33.671875 C38.48120651 34.70942932 38.47413177 35.74698364 38.46684265 36.815979 C38.43886641 40.12805448 38.37611929 43.43843599 38.3125 46.75 C38.28742143 48.99606933 38.26460749 51.24216517 38.24414062 53.48828125 C38.1890294 58.99276492 38.10537061 64.49626145 38 70 C37.15695312 70.40992188 36.31390625 70.81984375 35.4453125 71.2421875 C34.34960938 71.78101563 33.25390625 72.31984375 32.125 72.875 C31.03445313 73.40867187 29.94390625 73.94234375 28.8203125 74.4921875 C25.96117453 75.84535937 25.96117453 75.84535937 24 78 C23.01 78 22.02 78 21 78 C19.7890625 76.42578125 19.7890625 76.42578125 18.625 74.3125 C16.47950731 70.64836038 14.09542004 67.93250319 11 65 C8.68984277 62.15672956 6.88271575 59.13785958 5 56 C4.22849609 54.93845703 4.22849609 54.93845703 3.44140625 53.85546875 C2.60416016 52.68951172 2.60416016 52.68951172 1.75 51.5 C1.20859375 50.7678125 0.6671875 50.035625 0.109375 49.28125 C-1.32462533 46.33246058 -1.00375699 45.08465114 0 42 C1.76586914 40.5144043 1.76586914 40.5144043 4.03515625 39.32421875 C4.84404297 38.88916016 5.65292969 38.45410156 6.48632812 38.00585938 C7.7615332 37.35327148 7.7615332 37.35327148 9.0625 36.6875 C9.91650391 36.23310547 10.77050781 35.77871094 11.65039062 35.31054688 C13.75927182 34.19130825 15.87529814 33.08881857 18 32 C18 30.35 18 28.7 18 27 C12.58746696 26.47620648 9.17477343 28.17718985 4.6875 30.9375 C3.73907227 31.49727539 3.73907227 31.49727539 2.77148438 32.06835938 C-0.28807131 33.79881971 -0.28807131 33.79881971 -3 36 C-4.68608966 36.07205511 -6.37500659 36.08386068 -8.0625 36.0625 C-8.98160156 36.05347656 -9.90070313 36.04445312 -10.84765625 36.03515625 C-11.55792969 36.02355469 -12.26820313 36.01195312 -13 36 C-11.45949842 31.62173234 -9.81690458 27.61903664 -7.5625 23.5625 C-4.42297541 17.51109006 -3.20328723 11.08118709 -1.796875 4.46484375 C-1 1 -1 1 0 0 Z " fill="#FC6341" transform="translate(340,149)"/>
<path d="M0 0 C5.46333795 2.6600252 10.67517825 5.78028894 15.9375 8.8125 C16.51125366 9.14303375 17.08500732 9.4735675 17.67614746 9.81411743 C53.45330016 30.45330016 53.45330016 30.45330016 59 36 C59.17495606 38.50920846 59.23169569 40.90624941 59.1953125 43.4140625 C59.1924826 44.14370209 59.18965271 44.87334167 59.18673706 45.62509155 C59.17553002 47.95856028 59.1504251 50.29164703 59.125 52.625 C59.11497085 54.20572363 59.10584489 55.78645327 59.09765625 57.3671875 C59.07558905 61.24493914 59.04105615 65.12240478 59 69 C54.72595915 67.72496936 51.27847841 66.11864209 47.54296875 63.69140625 C46.52017822 63.03180908 45.4973877 62.37221191 44.44360352 61.69262695 C43.36908936 60.98968506 42.2945752 60.28674316 41.1875 59.5625 C39.51062218 58.47307358 37.83374316 57.38364887 36.15653992 56.29472351 C34.48778301 55.21041575 32.82054596 54.12377011 31.15332031 53.03710938 C28.33633152 51.21727703 25.50146119 49.43445321 22.6484375 47.671875 C21.47244995 46.93795532 21.47244995 46.93795532 20.27270508 46.18920898 C18.83860709 45.29592736 17.39861266 44.41201736 15.9519043 43.53930664 C9.58926703 39.53176094 8.88368739 34.89891094 7.08984375 27.87109375 C6.83129356 26.86381981 6.83129356 26.86381981 6.56752014 25.8361969 C6.0210334 23.70408832 5.47920927 21.57082682 4.9375 19.4375 C4.56996674 18.00057292 4.20213114 16.56372314 3.83398438 15.12695312 C2.54413969 10.08763066 1.25623868 5.04782411 0 0 Z " fill="#AB298B" transform="translate(185,328)"/>
<path d="M0 0 C0.09023438 1.01707031 0.18046875 2.03414062 0.2734375 3.08203125 C1.06180021 7.33325596 2.40454149 9.99673788 4.625 13.6875 C4.97820312 14.28401367 5.33140625 14.88052734 5.6953125 15.49511719 C6.78692269 17.33623473 7.89278629 19.16823428 9 21 C10.34087095 23.24568129 11.67148221 25.49694228 13 27.75 C13.5775 28.71421875 14.155 29.6784375 14.75 30.671875 C16 33 16 33 16 35 C16.66 35 17.32 35 18 35 C18 35.99 18 36.98 18 38 C10.09687142 35.43966692 2.44395511 32.31716357 -4.9375 28.5 C-9.81998834 25.98765163 -14.8620752 24.08294956 -20.01953125 22.2109375 C-22.89414009 21.04300992 -25.36627877 19.62671017 -28 18 C-30.19130534 17.30420546 -30.19130534 17.30420546 -32 17 C-31 14 -31 14 -28.9609375 12.71875 C-28.10757812 12.3165625 -27.25421875 11.914375 -26.375 11.5 C-25.46234375 11.06558594 -24.5496875 10.63117188 -23.609375 10.18359375 C-21.62612441 9.28400554 -19.62857098 8.41587282 -17.625 7.5625 C-13.16834829 5.64152943 -8.88642981 3.4307687 -4.57421875 1.20703125 C-2 0 -2 0 0 0 Z " fill="#A243A8" transform="translate(334,242)"/>
<path d="M0 0 C0.33 0 0.66 0 1 0 C1 23.1 1 46.2 1 70 C-2.20815804 68.39592098 -3.66358318 67.58286066 -6.015625 65.1796875 C-6.80839844 64.37724609 -6.80839844 64.37724609 -7.6171875 63.55859375 C-8.15601563 63.00300781 -8.69484375 62.44742188 -9.25 61.875 C-9.80429687 61.31167969 -10.35859375 60.74835938 -10.9296875 60.16796875 C-12.29104485 58.78313972 -13.64614859 57.39216796 -15 56 C-13.1375431 51.8204019 -11.01485251 50.27255803 -7 48 C-4.69 47.34 -2.38 46.68 0 46 C0 30.82 0 15.64 0 0 Z " fill="#F15699" transform="translate(378,173)"/>
<path d="M0 0 C3.43703303 1.29649144 6.53702622 2.7939597 9.6875 4.6796875 C10.55117187 5.19660156 11.41484375 5.71351563 12.3046875 6.24609375 C13.19414063 6.78363281 14.08359375 7.32117188 15 7.875 C16.33417969 8.66970703 16.33417969 8.66970703 17.6953125 9.48046875 C22.02861364 12.08691705 26.15786736 14.6861606 30 18 C29.67 18.99 29.34 19.98 29 21 C24.4300487 19.42144812 20.71911812 17.00505985 16.75 14.3125 C16.0912085 13.86841797 15.43241699 13.42433594 14.75366211 12.96679688 C3.43162647 5.27352986 3.43162647 5.27352986 0 2 C0 1.34 0 0.68 0 0 Z " fill="#C2AABD" transform="translate(107,313)"/>
<path d="M0 0 C-1.34564113 3.26895648 -2.38646463 4.53757535 -5.625 5.9375 C-9.43758843 7.67365138 -12.79615539 9.76366935 -16.23828125 12.14453125 C-18 13 -18 13 -21 12 C-19.44539063 11.07767578 -19.44539063 11.07767578 -17.859375 10.13671875 C-16.48951274 9.32043096 -15.11972498 8.50401813 -13.75 7.6875 C-13.06808594 7.28337891 -12.38617188 6.87925781 -11.68359375 6.46289062 C-8.90260351 4.80239645 -6.22213029 3.16880431 -3.640625 1.20703125 C-2 0 -2 0 0 0 Z " fill="#B66F99" transform="translate(292,370)"/>
<path d="M0 0 C-1.20888985 3.62666955 -1.96453165 3.80287066 -5.25 5.5 C-7.88713703 6.88135749 -10.37715085 8.24596795 -12.875 9.875 C-13.57625 10.24625 -14.2775 10.6175 -15 11 C-15.99 10.67 -16.98 10.34 -18 10 C-15.37957157 8.32605999 -12.75294095 6.6621165 -10.125 5 C-9.37863281 4.52304687 -8.63226563 4.04609375 -7.86328125 3.5546875 C-6.79013672 2.87792969 -6.79013672 2.87792969 -5.6953125 2.1875 C-5.03547363 1.76855469 -4.37563477 1.34960938 -3.69580078 0.91796875 C-2 0 -2 0 0 0 Z " fill="#BC749B" transform="translate(316,355)"/>
<path d="M0 0 C1.8871875 0.0309375 1.8871875 0.0309375 3.8125 0.0625 C3.8125 0.3925 3.8125 0.7225 3.8125 1.0625 C3.22082031 1.13726562 2.62914062 1.21203125 2.01953125 1.2890625 C-2.39761098 2.02405191 -5.34126205 2.62303499 -8.25 6.1875 C-9.2090625 7.610625 -9.2090625 7.610625 -10.1875 9.0625 C-10.8475 8.7325 -11.5075 8.4025 -12.1875 8.0625 C-11.42633449 6.91022177 -10.65317307 5.7658614 -9.875 4.625 C-9.44574219 3.98691406 -9.01648438 3.34882813 -8.57421875 2.69140625 C-6.17832953 -0.12291996 -3.45636279 -0.05666169 0 0 Z " fill="#13A8CF" transform="translate(142.1875,193.9375)"/>
<path d="M0 0 C2.02350324 3.03525486 2.32124018 4.19426202 2.625 7.6875 C2.69976562 8.49574219 2.77453125 9.30398438 2.8515625 10.13671875 C2.92503906 11.05904297 2.92503906 11.05904297 3 12 C-1.875 10.25 -1.875 10.25 -3 8 C-1.68 8.33 -0.36 8.66 1 9 C0.67 6.03 0.34 3.06 0 0 Z " fill="#509CD2" transform="translate(192,355)"/>
<path d="M0 0 C0.99 0.33 1.98 0.66 3 1 C0.6875 3.5 0.6875 3.5 -2 6 C-2.99 6 -3.98 6 -5 6 C-3.35 4.02 -1.7 2.04 0 0 Z " fill="#12B1D9" transform="translate(111,229)"/>
</svg>
